<svg width="321" height="257" viewBox="0 0 321 257" fill="none" xmlns="http://www.w3.org/2000/svg">
<path d="M208 20.5L144 244.5C141.5 253 133 258 124.5 255.5C116 253 111 244.5 113.5 236L177.5 12C180 3.50001 188.5 -1.49999 197 1.00001C205.5 3.50001 210.5 12 208 20.5ZM260 61L316 117C322.5 123 322.5 133.5 316 139.5L260 195.5C254 202 243.5 202 237.5 195.5C231 189.5 231 179 237.5 173L282 128L237.5 83.5C231 77.5 231 67 237.5 61C243.5 54.5 254 54.5 260 61ZM84 83.5L39.5 128L84 173C90.5 179 90.5 189.5 84 195.5C78 202 67.5 202 61.5 195.5L5.5 139.5C-1 133.5 -1 123 5.5 117L61.5 61C67.5 54.5 78 54.5 84 61C90.5 67 90.5 77.5 84 83.5Z" fill="white"/>
</svg>
