<svg width="1080" height="1080" viewBox="0 0 1080 1080" fill="none" xmlns="http://www.w3.org/2000/svg">
<rect width="1080" height="1080" fill="black"/>
<g filter="url(#filter0_dd_7_2)">
<path d="M256.61 427.818H142.406V425.866H256.61V427.818ZM256.61 444.087H228.791C227.706 444.087 226.351 445.117 224.724 447.178C223.097 449.238 221.741 450.269 220.657 450.269H178.359C177.274 450.269 175.919 449.238 174.292 447.178C172.665 445.117 171.309 444.087 170.225 444.087H142.406V442.134H170.225C171.309 442.134 172.665 441.104 174.292 439.043C175.919 436.983 177.274 435.952 178.359 435.952H220.657C221.741 435.952 223.097 436.983 224.724 439.043C226.351 441.104 227.706 442.134 228.791 442.134H256.61V444.087ZM256.61 460.355H245.059C243.975 460.355 242.619 461.385 240.992 463.446C239.365 465.507 238.01 466.537 236.925 466.537H227.164C226.08 466.537 224.724 465.507 223.097 463.446C221.47 461.385 220.114 460.355 219.03 460.355H179.986C178.901 460.355 177.546 461.385 175.919 463.446C174.292 465.507 172.936 466.537 171.852 466.537H162.091C161.006 466.537 159.65 465.507 158.023 463.446C156.397 461.385 155.041 460.355 153.956 460.355H142.406V458.403H153.956C155.041 458.403 156.397 457.372 158.023 455.312C159.65 453.251 161.006 452.221 162.091 452.221H171.852C172.936 452.221 174.292 453.251 175.919 455.312C177.546 457.372 178.901 458.403 179.986 458.403H219.03C220.114 458.403 221.47 457.372 223.097 455.312C224.724 453.251 226.08 452.221 227.164 452.221H236.925C238.01 452.221 239.365 453.251 240.992 455.312C242.619 457.372 243.975 458.403 245.059 458.403H256.61V460.355ZM256.61 476.623H179.986C178.901 476.623 177.546 477.654 175.919 479.714C174.292 481.775 172.936 482.805 171.852 482.805H162.091C161.006 482.805 159.65 481.775 158.023 479.714C156.397 477.654 155.041 476.623 153.956 476.623H142.406V474.671H153.956C155.041 474.671 156.397 473.641 158.023 471.58C159.65 469.52 161.006 468.489 162.091 468.489H171.852C172.936 468.489 174.292 469.52 175.919 471.58C177.546 473.641 178.901 474.671 179.986 474.671H256.61V476.623ZM256.61 492.892H179.986C178.901 492.892 177.546 493.922 175.919 495.983C174.292 498.043 172.936 499.074 171.852 499.074H162.091C161.006 499.074 159.65 498.043 158.023 495.983C156.397 493.922 155.041 492.892 153.956 492.892H142.406V490.94H153.956C155.041 490.94 156.397 489.909 158.023 487.849C159.65 485.788 161.006 484.758 162.091 484.758H171.852C172.936 484.758 174.292 485.788 175.919 487.849C177.546 489.909 178.901 490.94 179.986 490.94H256.61V492.892ZM256.61 509.16H179.986C178.901 509.16 177.546 510.19 175.919 512.251C174.292 514.312 172.936 515.342 171.852 515.342H162.091C161.006 515.342 159.65 514.312 158.023 512.251C156.397 510.19 155.041 509.16 153.956 509.16H142.406V507.208H153.956C155.041 507.208 156.397 506.178 158.023 504.117C159.65 502.056 161.006 501.026 162.091 501.026H171.852C172.936 501.026 174.292 502.056 175.919 504.117C177.546 506.178 178.901 507.208 179.986 507.208H256.61V509.16ZM256.61 525.429H245.059C243.975 525.429 242.619 526.459 240.992 528.52C239.365 530.58 238.01 531.61 236.925 531.61H227.164C226.08 531.61 224.724 530.58 223.097 528.52C221.47 526.459 220.114 525.429 219.03 525.429H179.986C178.901 525.429 177.546 526.459 175.919 528.52C174.292 530.58 172.936 531.61 171.852 531.61H162.091C161.006 531.61 159.65 530.58 158.023 528.52C156.397 526.459 155.041 525.429 153.956 525.429H142.406V523.476H153.956C155.041 523.476 156.397 522.446 158.023 520.385C159.65 518.325 161.006 517.294 162.091 517.294H171.852C172.936 517.294 174.292 518.325 175.919 520.385C177.546 522.446 178.901 523.476 179.986 523.476H219.03C220.114 523.476 221.47 522.446 223.097 520.385C224.724 518.325 226.08 517.294 227.164 517.294H236.925C238.01 517.294 239.365 518.325 240.992 520.385C242.619 522.446 243.975 523.476 245.059 523.476H256.61V525.429ZM256.61 541.697H228.791C227.706 541.697 226.351 542.727 224.724 544.788C223.097 546.849 221.741 547.879 220.657 547.879H178.359C177.274 547.879 175.919 546.849 174.292 544.788C172.665 542.727 171.309 541.697 170.225 541.697H142.406V539.745H170.225C171.309 539.745 172.665 538.714 174.292 536.654C175.919 534.593 177.274 533.563 178.359 533.563H220.657C221.741 533.563 223.097 534.593 224.724 536.654C226.351 538.714 227.706 539.745 228.791 539.745H256.61V541.697ZM256.61 557.965H142.406V556.013H256.61V557.965ZM256.61 574.234H142.406V572.281H256.61V574.234ZM354.252 427.818H240.048V425.866H354.252V427.818ZM354.252 444.087H326.433C325.348 444.087 323.993 445.117 322.366 447.178C320.739 449.238 319.383 450.269 318.299 450.269H276.001C274.916 450.269 273.561 449.238 271.934 447.178C270.307 445.117 268.951 444.087 267.867 444.087H240.048V442.134H267.867C268.951 442.134 270.307 441.104 271.934 439.043C273.561 436.983 274.916 435.952 276.001 435.952H318.299C319.383 435.952 320.739 436.983 322.366 439.043C323.993 441.104 325.348 442.134 326.433 442.134H354.252V444.087ZM354.252 460.355H342.701C341.617 460.355 340.261 461.385 338.634 463.446C337.007 465.507 335.652 466.537 334.567 466.537H324.806C323.722 466.537 322.366 465.507 320.739 463.446C319.112 461.385 317.757 460.355 316.672 460.355H277.628C276.543 460.355 275.188 461.385 273.561 463.446C271.934 465.507 270.578 466.537 269.494 466.537H259.733C258.648 466.537 257.292 465.507 255.666 463.446C254.039 461.385 252.683 460.355 251.598 460.355H240.048V458.403H251.598C252.683 458.403 254.039 457.372 255.666 455.312C257.292 453.251 258.648 452.221 259.733 452.221H269.494C270.578 452.221 271.934 453.251 273.561 455.312C275.188 457.372 276.543 458.403 277.628 458.403H316.672C317.757 458.403 319.112 457.372 320.739 455.312C322.366 453.251 323.722 452.221 324.806 452.221H334.567C335.652 452.221 337.007 453.251 338.634 455.312C340.261 457.372 341.617 458.403 342.701 458.403H354.252V460.355ZM354.252 476.623H342.701C341.617 476.623 340.261 477.654 338.634 479.714C337.007 481.775 335.652 482.805 334.567 482.805H324.806C323.722 482.805 322.366 481.775 320.739 479.714C319.112 477.654 317.757 476.623 316.672 476.623H277.628C276.543 476.623 275.188 477.654 273.561 479.714C271.934 481.775 270.578 482.805 269.494 482.805H259.733C258.648 482.805 257.292 481.775 255.666 479.714C254.039 477.654 252.683 476.623 251.598 476.623H240.048V474.671H251.598C252.683 474.671 254.039 473.641 255.666 471.58C257.292 469.52 258.648 468.489 259.733 468.489H269.494C270.578 468.489 271.934 469.52 273.561 471.58C275.188 473.641 276.543 474.671 277.628 474.671H316.672C317.757 474.671 319.112 473.641 320.739 471.58C322.366 469.52 323.722 468.489 324.806 468.489H334.567C335.652 468.489 337.007 469.52 338.634 471.58C340.261 473.641 341.617 474.671 342.701 474.671H354.252V476.623ZM354.252 492.892H342.701C341.617 492.892 340.261 493.922 338.634 495.983C337.007 498.043 335.652 499.074 334.567 499.074H324.806C323.722 499.074 322.366 498.043 320.739 495.983C319.112 493.922 317.757 492.892 316.672 492.892H277.628C276.543 492.892 275.188 493.922 273.561 495.983C271.934 498.043 270.578 499.074 269.494 499.074H259.733C258.648 499.074 257.292 498.043 255.666 495.983C254.039 493.922 252.683 492.892 251.598 492.892H240.048V490.94H251.598C252.683 490.94 254.039 489.909 255.666 487.849C257.292 485.788 258.648 484.758 259.733 484.758H269.494C270.578 484.758 271.934 485.788 273.561 487.849C275.188 489.909 276.543 490.94 277.628 490.94H316.672C317.757 490.94 319.112 489.909 320.739 487.849C322.366 485.788 323.722 484.758 324.806 484.758H334.567C335.652 484.758 337.007 485.788 338.634 487.849C340.261 489.909 341.617 490.94 342.701 490.94H354.252V492.892ZM354.252 509.16H342.701C341.617 509.16 340.261 510.19 338.634 512.251C337.007 514.312 335.652 515.342 334.567 515.342H324.806C323.722 515.342 322.366 514.312 320.739 512.251C319.112 510.19 317.757 509.16 316.672 509.16H277.628C276.543 509.16 275.188 510.19 273.561 512.251C271.934 514.312 270.578 515.342 269.494 515.342H259.733C258.648 515.342 257.292 514.312 255.666 512.251C254.039 510.19 252.683 509.16 251.598 509.16H240.048V507.208H251.598C252.683 507.208 254.039 506.178 255.666 504.117C257.292 502.056 258.648 501.026 259.733 501.026H269.494C270.578 501.026 271.934 502.056 273.561 504.117C275.188 506.178 276.543 507.208 277.628 507.208H316.672C317.757 507.208 319.112 506.178 320.739 504.117C322.366 502.056 323.722 501.026 324.806 501.026H334.567C335.652 501.026 337.007 502.056 338.634 504.117C340.261 506.178 341.617 507.208 342.701 507.208H354.252V509.16ZM354.252 525.429H342.701C341.617 525.429 340.261 526.459 338.634 528.52C337.007 530.58 335.652 531.61 334.567 531.61H324.806C323.722 531.61 322.366 530.58 320.739 528.52C319.112 526.459 317.757 525.429 316.672 525.429H277.628C276.543 525.429 275.188 526.459 273.561 528.52C271.934 530.58 270.578 531.61 269.494 531.61H259.733C258.648 531.61 257.292 530.58 255.666 528.52C254.039 526.459 252.683 525.429 251.598 525.429H240.048V523.476H251.598C252.683 523.476 254.039 522.446 255.666 520.385C257.292 518.325 258.648 517.294 259.733 517.294H269.494C270.578 517.294 271.934 518.325 273.561 520.385C275.188 522.446 276.543 523.476 277.628 523.476H316.672C317.757 523.476 319.112 522.446 320.739 520.385C322.366 518.325 323.722 517.294 324.806 517.294H334.567C335.652 517.294 337.007 518.325 338.634 520.385C340.261 522.446 341.617 523.476 342.701 523.476H354.252V525.429ZM354.252 541.697H326.433C325.348 541.697 323.993 542.727 322.366 544.788C320.739 546.849 319.383 547.879 318.299 547.879H276.001C274.916 547.879 273.561 546.849 271.934 544.788C270.307 542.727 268.951 541.697 267.867 541.697H240.048V539.745H267.867C268.951 539.745 270.307 538.714 271.934 536.654C273.561 534.593 274.916 533.563 276.001 533.563H318.299C319.383 533.563 320.739 534.593 322.366 536.654C323.993 538.714 325.348 539.745 326.433 539.745H354.252V541.697ZM354.252 557.965H240.048V556.013H354.252V557.965ZM354.252 574.234H240.048V572.281H354.252V574.234ZM451.894 427.818H337.69V425.866H451.894V427.818ZM451.894 444.087H440.343C439.259 444.087 437.903 445.117 436.276 447.178C434.65 449.238 433.294 450.269 432.209 450.269H422.448C421.364 450.269 420.008 449.238 418.381 447.178C416.754 445.117 415.399 444.087 414.314 444.087H375.27C374.185 444.087 372.83 445.117 371.203 447.178C369.576 449.238 368.22 450.269 367.136 450.269H357.375C356.29 450.269 354.934 449.238 353.308 447.178C351.681 445.117 350.325 444.087 349.24 444.087H337.69V442.134H349.24C350.325 442.134 351.681 441.104 353.308 439.043C354.934 436.983 356.29 435.952 357.375 435.952H367.136C368.22 435.952 369.576 436.983 371.203 439.043C372.83 441.104 374.185 442.134 375.27 442.134H414.314C415.399 442.134 416.754 441.104 418.381 439.043C420.008 436.983 421.364 435.952 422.448 435.952H432.209C433.294 435.952 434.65 436.983 436.276 439.043C437.903 441.104 439.259 442.134 440.343 442.134H451.894V444.087ZM451.894 460.355H440.343C439.259 460.355 437.903 461.385 436.276 463.446C434.65 465.507 433.294 466.537 432.209 466.537H406.18C405.095 466.537 403.74 465.507 402.113 463.446C400.486 461.385 399.13 460.355 398.046 460.355H391.538C390.454 460.355 389.098 461.385 387.471 463.446C385.844 465.507 384.489 466.537 383.404 466.537H357.375C356.29 466.537 354.934 465.507 353.308 463.446C351.681 461.385 350.325 460.355 349.24 460.355H337.69V458.403H349.24C350.325 458.403 351.681 457.372 353.308 455.312C354.934 453.251 356.29 452.221 357.375 452.221H383.404C384.489 452.221 385.844 453.251 387.471 455.312C389.098 457.372 390.454 458.403 391.538 458.403H398.046C399.13 458.403 400.486 457.372 402.113 455.312C403.74 453.251 405.095 452.221 406.18 452.221H432.209C433.294 452.221 434.65 453.251 436.276 455.312C437.903 457.372 439.259 458.403 440.343 458.403H451.894V460.355ZM451.894 476.623H440.343C439.259 476.623 437.903 477.654 436.276 479.714C434.65 481.775 433.294 482.805 432.209 482.805H422.448C421.364 482.805 420.008 481.775 418.381 479.714C416.754 477.654 415.399 476.623 414.314 476.623H407.807C406.722 476.623 405.366 477.654 403.74 479.714C402.113 481.775 400.757 482.805 399.672 482.805H389.911C388.827 482.805 387.471 481.775 385.844 479.714C384.218 477.654 382.862 476.623 381.777 476.623H375.27C374.185 476.623 372.83 477.654 371.203 479.714C369.576 481.775 368.22 482.805 367.136 482.805H357.375C356.29 482.805 354.934 481.775 353.308 479.714C351.681 477.654 350.325 476.623 349.24 476.623H337.69V474.671H349.24C350.325 474.671 351.681 473.641 353.308 471.58C354.934 469.52 356.29 468.489 357.375 468.489H367.136C368.22 468.489 369.576 469.52 371.203 471.58C372.83 473.641 374.185 474.671 375.27 474.671H381.777C382.862 474.671 384.218 473.641 385.844 471.58C387.471 469.52 388.827 468.489 389.911 468.489H399.672C400.757 468.489 402.113 469.52 403.74 471.58C405.366 473.641 406.722 474.671 407.807 474.671H414.314C415.399 474.671 416.754 473.641 418.381 471.58C420.008 469.52 421.364 468.489 422.448 468.489H432.209C433.294 468.489 434.65 469.52 436.276 471.58C437.903 473.641 439.259 474.671 440.343 474.671H451.894V476.623ZM451.894 492.892H440.343C439.259 492.892 437.903 493.922 436.276 495.983C434.65 498.043 433.294 499.074 432.209 499.074H422.448C421.364 499.074 420.008 498.043 418.381 495.983C416.754 493.922 415.399 492.892 414.314 492.892H375.27C374.185 492.892 372.83 493.922 371.203 495.983C369.576 498.043 368.22 499.074 367.136 499.074H357.375C356.29 499.074 354.934 498.043 353.308 495.983C351.681 493.922 350.325 492.892 349.24 492.892H337.69V490.94H349.24C350.325 490.94 351.681 489.909 353.308 487.849C354.934 485.788 356.29 484.758 357.375 484.758H367.136C368.22 484.758 369.576 485.788 371.203 487.849C372.83 489.909 374.185 490.94 375.27 490.94H414.314C415.399 490.94 416.754 489.909 418.381 487.849C420.008 485.788 421.364 484.758 422.448 484.758H432.209C433.294 484.758 434.65 485.788 436.276 487.849C437.903 489.909 439.259 490.94 440.343 490.94H451.894V492.892ZM451.894 509.16H440.343C439.259 509.16 437.903 510.19 436.276 512.251C434.65 514.312 433.294 515.342 432.209 515.342H422.448C421.364 515.342 420.008 514.312 418.381 512.251C416.754 510.19 415.399 509.16 414.314 509.16H375.27C374.185 509.16 372.83 510.19 371.203 512.251C369.576 514.312 368.22 515.342 367.136 515.342H357.375C356.29 515.342 354.934 514.312 353.308 512.251C351.681 510.19 350.325 509.16 349.24 509.16H337.69V507.208H349.24C350.325 507.208 351.681 506.178 353.308 504.117C354.934 502.056 356.29 501.026 357.375 501.026H367.136C368.22 501.026 369.576 502.056 371.203 504.117C372.83 506.178 374.185 507.208 375.27 507.208H414.314C415.399 507.208 416.754 506.178 418.381 504.117C420.008 502.056 421.364 501.026 422.448 501.026H432.209C433.294 501.026 434.65 502.056 436.276 504.117C437.903 506.178 439.259 507.208 440.343 507.208H451.894V509.16ZM451.894 525.429H440.343C439.259 525.429 437.903 526.459 436.276 528.52C434.65 530.58 433.294 531.61 432.209 531.61H422.448C421.364 531.61 420.008 530.58 418.381 528.52C416.754 526.459 415.399 525.429 414.314 525.429H375.27C374.185 525.429 372.83 526.459 371.203 528.52C369.576 530.58 368.22 531.61 367.136 531.61H357.375C356.29 531.61 354.934 530.58 353.308 528.52C351.681 526.459 350.325 525.429 349.24 525.429H337.69V523.476H349.24C350.325 523.476 351.681 522.446 353.308 520.385C354.934 518.325 356.29 517.294 357.375 517.294H367.136C368.22 517.294 369.576 518.325 371.203 520.385C372.83 522.446 374.185 523.476 375.27 523.476H414.314C415.399 523.476 416.754 522.446 418.381 520.385C420.008 518.325 421.364 517.294 422.448 517.294H432.209C433.294 517.294 434.65 518.325 436.276 520.385C437.903 522.446 439.259 523.476 440.343 523.476H451.894V525.429ZM451.894 541.697H440.343C439.259 541.697 437.903 542.727 436.276 544.788C434.65 546.849 433.294 547.879 432.209 547.879H422.448C421.364 547.879 420.008 546.849 418.381 544.788C416.754 542.727 415.399 541.697 414.314 541.697H375.27C374.185 541.697 372.83 542.727 371.203 544.788C369.576 546.849 368.22 547.879 367.136 547.879H357.375C356.29 547.879 354.934 546.849 353.308 544.788C351.681 542.727 350.325 541.697 349.24 541.697H337.69V539.745H349.24C350.325 539.745 351.681 538.714 353.308 536.654C354.934 534.593 356.29 533.563 357.375 533.563H367.136C368.22 533.563 369.576 534.593 371.203 536.654C372.83 538.714 374.185 539.745 375.27 539.745H414.314C415.399 539.745 416.754 538.714 418.381 536.654C420.008 534.593 421.364 533.563 422.448 533.563H432.209C433.294 533.563 434.65 534.593 436.276 536.654C437.903 538.714 439.259 539.745 440.343 539.745H451.894V541.697ZM451.894 557.965H337.69V556.013H451.894V557.965ZM451.894 574.234H337.69V572.281H451.894V574.234ZM549.536 427.818H435.332V425.866H549.536V427.818ZM549.536 444.087H521.717C520.633 444.087 519.277 445.117 517.65 447.178C516.023 449.238 514.667 450.269 513.583 450.269H455.017C453.932 450.269 452.576 449.238 450.95 447.178C449.323 445.117 447.967 444.087 446.883 444.087H435.332V442.134H446.883C447.967 442.134 449.323 441.104 450.95 439.043C452.576 436.983 453.932 435.952 455.017 435.952H513.583C514.667 435.952 516.023 436.983 517.65 439.043C519.277 441.104 520.633 442.134 521.717 442.134H549.536V444.087ZM549.536 460.355H537.985C536.901 460.355 535.545 461.385 533.918 463.446C532.292 465.507 530.936 466.537 529.851 466.537H520.09C519.006 466.537 517.65 465.507 516.023 463.446C514.396 461.385 513.041 460.355 511.956 460.355H472.912C471.827 460.355 470.472 461.385 468.845 463.446C467.218 465.507 465.862 466.537 464.778 466.537H455.017C453.932 466.537 452.576 465.507 450.95 463.446C449.323 461.385 447.967 460.355 446.883 460.355H435.332V458.403H446.883C447.967 458.403 449.323 457.372 450.95 455.312C452.576 453.251 453.932 452.221 455.017 452.221H464.778C465.862 452.221 467.218 453.251 468.845 455.312C470.472 457.372 471.827 458.403 472.912 458.403H511.956C513.041 458.403 514.396 457.372 516.023 455.312C517.65 453.251 519.006 452.221 520.09 452.221H529.851C530.936 452.221 532.292 453.251 533.918 455.312C535.545 457.372 536.901 458.403 537.985 458.403H549.536V460.355ZM549.536 476.623H537.985C536.901 476.623 535.545 477.654 533.918 479.714C532.292 481.775 530.936 482.805 529.851 482.805H520.09C519.006 482.805 517.65 481.775 516.023 479.714C514.396 477.654 513.041 476.623 511.956 476.623H472.912C471.827 476.623 470.472 477.654 468.845 479.714C467.218 481.775 465.862 482.805 464.778 482.805H455.017C453.932 482.805 452.576 481.775 450.95 479.714C449.323 477.654 447.967 476.623 446.883 476.623H435.332V474.671H446.883C447.967 474.671 449.323 473.641 450.95 471.58C452.576 469.52 453.932 468.489 455.017 468.489H464.778C465.862 468.489 467.218 469.52 468.845 471.58C470.472 473.641 471.827 474.671 472.912 474.671H511.956C513.041 474.671 514.396 473.641 516.023 471.58C517.65 469.52 519.006 468.489 520.09 468.489H529.851C530.936 468.489 532.292 469.52 533.918 471.58C535.545 473.641 536.901 474.671 537.985 474.671H549.536V476.623ZM549.536 492.892H521.717C520.633 492.892 519.277 493.922 517.65 495.983C516.023 498.043 514.667 499.074 513.583 499.074H455.017C453.932 499.074 452.576 498.043 450.95 495.983C449.323 493.922 447.967 492.892 446.883 492.892H435.332V490.94H446.883C447.967 490.94 449.323 489.909 450.95 487.849C452.576 485.788 453.932 484.758 455.017 484.758H513.583C514.667 484.758 516.023 485.788 517.65 487.849C519.277 489.909 520.633 490.94 521.717 490.94H549.536V492.892ZM549.536 509.16H472.912C471.827 509.16 470.472 510.19 468.845 512.251C467.218 514.312 465.862 515.342 464.778 515.342H455.017C453.932 515.342 452.576 514.312 450.95 512.251C449.323 510.19 447.967 509.16 446.883 509.16H435.332V507.208H446.883C447.967 507.208 449.323 506.178 450.95 504.117C452.576 502.056 453.932 501.026 455.017 501.026H464.778C465.862 501.026 467.218 502.056 468.845 504.117C470.472 506.178 471.827 507.208 472.912 507.208H549.536V509.16ZM549.536 525.429H472.912C471.827 525.429 470.472 526.459 468.845 528.52C467.218 530.58 465.862 531.61 464.778 531.61H455.017C453.932 531.61 452.576 530.58 450.95 528.52C449.323 526.459 447.967 525.429 446.883 525.429H435.332V523.476H446.883C447.967 523.476 449.323 522.446 450.95 520.385C452.576 518.325 453.932 517.294 455.017 517.294H464.778C465.862 517.294 467.218 518.325 468.845 520.385C470.472 522.446 471.827 523.476 472.912 523.476H549.536V525.429ZM549.536 541.697H472.912C471.827 541.697 470.472 542.727 468.845 544.788C467.218 546.849 465.862 547.879 464.778 547.879H455.017C453.932 547.879 452.576 546.849 450.95 544.788C449.323 542.727 447.967 541.697 446.883 541.697H435.332V539.745H446.883C447.967 539.745 449.323 538.714 450.95 536.654C452.576 534.593 453.932 533.563 455.017 533.563H464.778C465.862 533.563 467.218 534.593 468.845 536.654C470.472 538.714 471.827 539.745 472.912 539.745H549.536V541.697ZM549.536 557.965H435.332V556.013H549.536V557.965ZM549.536 574.234H435.332V572.281H549.536V574.234ZM647.178 427.818H532.974V425.866H647.178V427.818ZM647.178 444.087H619.359C618.275 444.087 616.919 445.117 615.292 447.178C613.665 449.238 612.31 450.269 611.225 450.269H568.927C567.843 450.269 566.487 449.238 564.86 447.178C563.233 445.117 561.878 444.087 560.793 444.087H532.974V442.134H560.793C561.878 442.134 563.233 441.104 564.86 439.043C566.487 436.983 567.843 435.952 568.927 435.952H611.225C612.31 435.952 613.665 436.983 615.292 439.043C616.919 441.104 618.275 442.134 619.359 442.134H647.178V444.087ZM647.178 460.355H635.628C634.543 460.355 633.187 461.385 631.56 463.446C629.934 465.507 628.578 466.537 627.493 466.537H617.732C616.648 466.537 615.292 465.507 613.665 463.446C612.038 461.385 610.683 460.355 609.598 460.355H570.554C569.469 460.355 568.114 461.385 566.487 463.446C564.86 465.507 563.504 466.537 562.42 466.537H552.659C551.574 466.537 550.219 465.507 548.592 463.446C546.965 461.385 545.609 460.355 544.525 460.355H532.974V458.403H544.525C545.609 458.403 546.965 457.372 548.592 455.312C550.219 453.251 551.574 452.221 552.659 452.221H562.42C563.504 452.221 564.86 453.251 566.487 455.312C568.114 457.372 569.469 458.403 570.554 458.403H609.598C610.683 458.403 612.038 457.372 613.665 455.312C615.292 453.251 616.648 452.221 617.732 452.221H627.493C628.578 452.221 629.934 453.251 631.56 455.312C633.187 457.372 634.543 458.403 635.628 458.403H647.178V460.355ZM647.178 476.623H570.554C569.469 476.623 568.114 477.654 566.487 479.714C564.86 481.775 563.504 482.805 562.42 482.805H552.659C551.574 482.805 550.219 481.775 548.592 479.714C546.965 477.654 545.609 476.623 544.525 476.623H532.974V474.671H544.525C545.609 474.671 546.965 473.641 548.592 471.58C550.219 469.52 551.574 468.489 552.659 468.489H562.42C563.504 468.489 564.86 469.52 566.487 471.58C568.114 473.641 569.469 474.671 570.554 474.671H647.178V476.623ZM647.178 492.892H619.359C618.275 492.892 616.919 493.922 615.292 495.983C613.665 498.043 612.31 499.074 611.225 499.074H568.927C567.843 499.074 566.487 498.043 564.86 495.983C563.233 493.922 561.878 492.892 560.793 492.892H532.974V490.94H560.793C561.878 490.94 563.233 489.909 564.86 487.849C566.487 485.788 567.843 484.758 568.927 484.758H611.225C612.31 484.758 613.665 485.788 615.292 487.849C616.919 489.909 618.275 490.94 619.359 490.94H647.178V492.892ZM647.178 509.16H635.628C634.543 509.16 633.187 510.19 631.56 512.251C629.934 514.312 628.578 515.342 627.493 515.342H617.732C616.648 515.342 615.292 514.312 613.665 512.251C612.038 510.19 610.683 509.16 609.598 509.16H532.974V507.208H609.598C610.683 507.208 612.038 506.178 613.665 504.117C615.292 502.056 616.648 501.026 617.732 501.026H627.493C628.578 501.026 629.934 502.056 631.56 504.117C633.187 506.178 634.543 507.208 635.628 507.208H647.178V509.16ZM647.178 525.429H635.628C634.543 525.429 633.187 526.459 631.56 528.52C629.934 530.58 628.578 531.61 627.493 531.61H617.732C616.648 531.61 615.292 530.58 613.665 528.52C612.038 526.459 610.683 525.429 609.598 525.429H570.554C569.469 525.429 568.114 526.459 566.487 528.52C564.86 530.58 563.504 531.61 562.42 531.61H552.659C551.574 531.61 550.219 530.58 548.592 528.52C546.965 526.459 545.609 525.429 544.525 525.429H532.974V523.476H544.525C545.609 523.476 546.965 522.446 548.592 520.385C550.219 518.325 551.574 517.294 552.659 517.294H562.42C563.504 517.294 564.86 518.325 566.487 520.385C568.114 522.446 569.469 523.476 570.554 523.476H609.598C610.683 523.476 612.038 522.446 613.665 520.385C615.292 518.325 616.648 517.294 617.732 517.294H627.493C628.578 517.294 629.934 518.325 631.56 520.385C633.187 522.446 634.543 523.476 635.628 523.476H647.178V525.429ZM647.178 541.697H619.359C618.275 541.697 616.919 542.727 615.292 544.788C613.665 546.849 612.31 547.879 611.225 547.879H568.927C567.843 547.879 566.487 546.849 564.86 544.788C563.233 542.727 561.878 541.697 560.793 541.697H532.974V539.745H560.793C561.878 539.745 563.233 538.714 564.86 536.654C566.487 534.593 567.843 533.563 568.927 533.563H611.225C612.31 533.563 613.665 534.593 615.292 536.654C616.919 538.714 618.275 539.745 619.359 539.745H647.178V541.697ZM647.178 557.965H532.974V556.013H647.178V557.965ZM647.178 574.234H532.974V572.281H647.178V574.234ZM744.82 427.818H630.616V425.866H744.82V427.818ZM744.82 444.087H717.001C715.917 444.087 714.561 445.117 712.934 447.178C711.307 449.238 709.952 450.269 708.867 450.269H666.569C665.485 450.269 664.129 449.238 662.502 447.178C660.875 445.117 659.52 444.087 658.435 444.087H630.616V442.134H658.435C659.52 442.134 660.875 441.104 662.502 439.043C664.129 436.983 665.485 435.952 666.569 435.952H708.867C709.952 435.952 711.307 436.983 712.934 439.043C714.561 441.104 715.917 442.134 717.001 442.134H744.82V444.087ZM744.82 460.355H733.27C732.185 460.355 730.829 461.385 729.203 463.446C727.576 465.507 726.22 466.537 725.135 466.537H715.374C714.29 466.537 712.934 465.507 711.307 463.446C709.68 461.385 708.325 460.355 707.24 460.355H668.196C667.112 460.355 665.756 461.385 664.129 463.446C662.502 465.507 661.146 466.537 660.062 466.537H650.301C649.216 466.537 647.861 465.507 646.234 463.446C644.607 461.385 643.251 460.355 642.167 460.355H630.616V458.403H642.167C643.251 458.403 644.607 457.372 646.234 455.312C647.861 453.251 649.216 452.221 650.301 452.221H660.062C661.146 452.221 662.502 453.251 664.129 455.312C665.756 457.372 667.112 458.403 668.196 458.403H707.24C708.325 458.403 709.68 457.372 711.307 455.312C712.934 453.251 714.29 452.221 715.374 452.221H725.135C726.22 452.221 727.576 453.251 729.203 455.312C730.829 457.372 732.185 458.403 733.27 458.403H744.82V460.355ZM744.82 476.623H668.196C667.112 476.623 665.756 477.654 664.129 479.714C662.502 481.775 661.146 482.805 660.062 482.805H650.301C649.216 482.805 647.861 481.775 646.234 479.714C644.607 477.654 643.251 476.623 642.167 476.623H630.616V474.671H642.167C643.251 474.671 644.607 473.641 646.234 471.58C647.861 469.52 649.216 468.489 650.301 468.489H660.062C661.146 468.489 662.502 469.52 664.129 471.58C665.756 473.641 667.112 474.671 668.196 474.671H744.82V476.623ZM744.82 492.892H668.196C667.112 492.892 665.756 493.922 664.129 495.983C662.502 498.043 661.146 499.074 660.062 499.074H650.301C649.216 499.074 647.861 498.043 646.234 495.983C644.607 493.922 643.251 492.892 642.167 492.892H630.616V490.94H642.167C643.251 490.94 644.607 489.909 646.234 487.849C647.861 485.788 649.216 484.758 650.301 484.758H660.062C661.146 484.758 662.502 485.788 664.129 487.849C665.756 489.909 667.112 490.94 668.196 490.94H744.82V492.892ZM744.82 509.16H668.196C667.112 509.16 665.756 510.19 664.129 512.251C662.502 514.312 661.146 515.342 660.062 515.342H650.301C649.216 515.342 647.861 514.312 646.234 512.251C644.607 510.19 643.251 509.16 642.167 509.16H630.616V507.208H642.167C643.251 507.208 644.607 506.178 646.234 504.117C647.861 502.056 649.216 501.026 650.301 501.026H660.062C661.146 501.026 662.502 502.056 664.129 504.117C665.756 506.178 667.112 507.208 668.196 507.208H744.82V509.16ZM744.82 525.429H733.27C732.185 525.429 730.829 526.459 729.203 528.52C727.576 530.58 726.22 531.61 725.135 531.61H715.374C714.29 531.61 712.934 530.58 711.307 528.52C709.68 526.459 708.325 525.429 707.24 525.429H668.196C667.112 525.429 665.756 526.459 664.129 528.52C662.502 530.58 661.146 531.61 660.062 531.61H650.301C649.216 531.61 647.861 530.58 646.234 528.52C644.607 526.459 643.251 525.429 642.167 525.429H630.616V523.476H642.167C643.251 523.476 644.607 522.446 646.234 520.385C647.861 518.325 649.216 517.294 650.301 517.294H660.062C661.146 517.294 662.502 518.325 664.129 520.385C665.756 522.446 667.112 523.476 668.196 523.476H707.24C708.325 523.476 709.68 522.446 711.307 520.385C712.934 518.325 714.29 517.294 715.374 517.294H725.135C726.22 517.294 727.576 518.325 729.203 520.385C730.829 522.446 732.185 523.476 733.27 523.476H744.82V525.429ZM744.82 541.697H717.001C715.917 541.697 714.561 542.727 712.934 544.788C711.307 546.849 709.952 547.879 708.867 547.879H666.569C665.485 547.879 664.129 546.849 662.502 544.788C660.875 542.727 659.52 541.697 658.435 541.697H630.616V539.745H658.435C659.52 539.745 660.875 538.714 662.502 536.654C664.129 534.593 665.485 533.563 666.569 533.563H708.867C709.952 533.563 711.307 534.593 712.934 536.654C714.561 538.714 715.917 539.745 717.001 539.745H744.82V541.697ZM744.82 557.965H630.616V556.013H744.82V557.965ZM744.82 574.234H630.616V572.281H744.82V574.234ZM842.462 427.818H728.258V425.866H842.462V427.818ZM842.462 444.087H830.912C829.827 444.087 828.471 445.117 826.845 447.178C825.218 449.238 823.862 450.269 822.777 450.269H747.943C746.858 450.269 745.503 449.238 743.876 447.178C742.249 445.117 740.893 444.087 739.809 444.087H728.258V442.134H739.809C740.893 442.134 742.249 441.104 743.876 439.043C745.503 436.983 746.858 435.952 747.943 435.952H822.777C823.862 435.952 825.218 436.983 826.845 439.043C828.471 441.104 829.827 442.134 830.912 442.134H842.462V444.087ZM842.462 460.355H798.375C797.29 460.355 795.935 461.385 794.308 463.446C792.681 465.507 791.325 466.537 790.241 466.537H780.48C779.395 466.537 778.039 465.507 776.413 463.446C774.786 461.385 773.43 460.355 772.345 460.355H728.258V458.403H772.345C773.43 458.403 774.786 457.372 776.413 455.312C778.039 453.251 779.395 452.221 780.48 452.221H790.241C791.325 452.221 792.681 453.251 794.308 455.312C795.935 457.372 797.29 458.403 798.375 458.403H842.462V460.355ZM842.462 476.623H798.375C797.29 476.623 795.935 477.654 794.308 479.714C792.681 481.775 791.325 482.805 790.241 482.805H780.48C779.395 482.805 778.039 481.775 776.413 479.714C774.786 477.654 773.43 476.623 772.345 476.623H728.258V474.671H772.345C773.43 474.671 774.786 473.641 776.413 471.58C778.039 469.52 779.395 468.489 780.48 468.489H790.241C791.325 468.489 792.681 469.52 794.308 471.58C795.935 473.641 797.29 474.671 798.375 474.671H842.462V476.623ZM842.462 492.892H798.375C797.29 492.892 795.935 493.922 794.308 495.983C792.681 498.043 791.325 499.074 790.241 499.074H780.48C779.395 499.074 778.039 498.043 776.413 495.983C774.786 493.922 773.43 492.892 772.345 492.892H728.258V490.94H772.345C773.43 490.94 774.786 489.909 776.413 487.849C778.039 485.788 779.395 484.758 780.48 484.758H790.241C791.325 484.758 792.681 485.788 794.308 487.849C795.935 489.909 797.29 490.94 798.375 490.94H842.462V492.892ZM842.462 509.16H798.375C797.29 509.16 795.935 510.19 794.308 512.251C792.681 514.312 791.325 515.342 790.241 515.342H780.48C779.395 515.342 778.039 514.312 776.413 512.251C774.786 510.19 773.43 509.16 772.345 509.16H728.258V507.208H772.345C773.43 507.208 774.786 506.178 776.413 504.117C778.039 502.056 779.395 501.026 780.48 501.026H790.241C791.325 501.026 792.681 502.056 794.308 504.117C795.935 506.178 797.29 507.208 798.375 507.208H842.462V509.16ZM842.462 525.429H798.375C797.29 525.429 795.935 526.459 794.308 528.52C792.681 530.58 791.325 531.61 790.241 531.61H780.48C779.395 531.61 778.039 530.58 776.413 528.52C774.786 526.459 773.43 525.429 772.345 525.429H728.258V523.476H772.345C773.43 523.476 774.786 522.446 776.413 520.385C778.039 518.325 779.395 517.294 780.48 517.294H790.241C791.325 517.294 792.681 518.325 794.308 520.385C795.935 522.446 797.29 523.476 798.375 523.476H842.462V525.429ZM842.462 541.697H830.912C829.827 541.697 828.471 542.727 826.845 544.788C825.218 546.849 823.862 547.879 822.777 547.879H747.943C746.858 547.879 745.503 546.849 743.876 544.788C742.249 542.727 740.893 541.697 739.809 541.697H728.258V539.745H739.809C740.893 539.745 742.249 538.714 743.876 536.654C745.503 534.593 746.858 533.563 747.943 533.563H822.777C823.862 533.563 825.218 534.593 826.845 536.654C828.471 538.714 829.827 539.745 830.912 539.745H842.462V541.697ZM842.462 557.965H728.258V556.013H842.462V557.965ZM842.462 574.234H728.258V572.281H842.462V574.234ZM940.104 427.818H825.9V425.866H940.104V427.818ZM940.104 444.087H825.9V442.134H940.104V444.087ZM940.104 460.355H825.9V458.403H940.104V460.355ZM940.104 476.623H825.9V474.671H940.104V476.623ZM940.104 492.892H825.9V490.94H940.104V492.892ZM940.104 509.16H825.9V507.208H940.104V509.16ZM940.104 525.429H896.017C894.932 525.429 893.577 526.459 891.95 528.52C890.323 530.58 888.967 531.61 887.883 531.61H861.853C860.769 531.61 859.413 530.58 857.786 528.52C856.159 526.459 854.804 525.429 853.719 525.429H825.9V523.476H853.719C854.804 523.476 856.159 522.446 857.786 520.385C859.413 518.325 860.769 517.294 861.853 517.294H887.883C888.967 517.294 890.323 518.325 891.95 520.385C893.577 522.446 894.932 523.476 896.017 523.476H940.104V525.429ZM940.104 541.697H896.017C894.932 541.697 893.577 542.727 891.95 544.788C890.323 546.849 888.967 547.879 887.883 547.879H861.853C860.769 547.879 859.413 546.849 857.786 544.788C856.159 542.727 854.804 541.697 853.719 541.697H825.9V539.745H853.719C854.804 539.745 856.159 538.714 857.786 536.654C859.413 534.593 860.769 533.563 861.853 533.563H887.883C888.967 533.563 890.323 534.593 891.95 536.654C893.577 538.714 894.932 539.745 896.017 539.745H940.104V541.697ZM940.104 557.965H825.9V556.013H940.104V557.965ZM940.104 574.234H825.9V572.281H940.104V574.234Z" fill="#4ED034"/>
</g>
<path d="M188.579 635.552L190.607 638.348C186.971 641.005 183.475 642.963 180.119 644.082C176.763 645.27 173.127 645.829 169.212 645.829C161.381 645.829 155.018 643.522 150.054 638.908C144.74 634.083 142.153 627.93 142.153 620.449C142.153 612.898 144.81 606.605 150.264 601.431C155.648 596.258 162.29 593.671 170.26 593.671C177.182 593.671 182.846 595.628 187.251 599.544C191.655 603.459 193.893 608.493 193.893 614.646C193.893 619.54 192.424 623.805 189.558 627.511C186.621 631.217 183.265 633.034 179.49 633.034C177.672 633.034 176.203 632.615 175.155 631.706C174.036 630.797 173.547 629.539 173.547 627.93C173.547 627.371 173.547 626.952 173.686 626.532C171.449 630.867 168.233 633.034 164.038 633.034C161.171 633.034 158.864 632.056 157.116 630.098C155.368 628.14 154.529 625.553 154.529 622.337C154.529 617.862 155.927 613.877 158.724 610.521C161.521 607.165 164.807 605.417 168.512 605.417C172.358 605.417 175.015 607.025 176.483 610.171L177.462 606.535H183.405L178.86 622.127C178.371 623.805 178.161 625.064 178.161 625.903C178.161 627.791 179.07 628.7 181.028 628.7C183.265 628.7 185.363 627.231 187.181 624.225C188.998 621.288 189.977 617.932 189.977 614.296C189.977 609.262 188.159 605.207 184.524 602.061C180.888 598.914 176.134 597.306 170.33 597.306C163.339 597.306 157.605 599.544 152.991 603.949C148.376 608.423 146.069 613.947 146.069 620.659C146.069 627.021 148.236 632.195 152.571 636.251C156.906 640.306 162.569 642.264 169.421 642.264C175.994 642.264 182.426 640.026 188.579 635.552ZM174.316 614.296C174.316 612.968 173.896 611.849 173.127 611.01C172.358 610.171 171.309 609.682 169.981 609.682C167.604 609.682 165.576 611.22 163.898 614.226C162.29 617.303 161.451 620.1 161.451 622.687C161.451 624.644 161.87 626.113 162.639 627.161C163.408 628.21 164.457 628.7 165.856 628.7C167.534 628.7 169.002 627.791 170.4 625.903C171.799 624.085 172.777 622.057 173.407 619.89C173.966 617.722 174.316 615.835 174.316 614.296ZM232.054 630.727C231.425 635.412 229.607 639.047 226.531 641.704C223.454 644.291 219.539 645.62 214.785 645.62C209.191 645.62 204.786 643.872 201.43 640.516C198.074 637.09 196.396 632.545 196.396 626.882C196.396 621.078 198.074 616.394 201.43 612.828C204.786 609.332 209.331 607.514 214.924 607.514C219.679 607.514 223.594 608.773 226.671 611.22C229.677 613.667 231.425 616.953 231.845 621.148H222.126C221.357 617.023 218.98 614.926 214.994 614.926C212.268 614.926 210.17 615.974 208.632 618.072C207.094 620.17 206.394 623.036 206.394 626.742C206.394 630.308 207.094 633.104 208.562 635.062C210.03 637.02 212.128 637.999 214.785 637.999C219.12 637.999 221.637 635.621 222.476 630.727H232.054ZM253.465 607.514C258.988 607.514 263.463 609.262 266.819 612.758C270.175 616.254 271.923 620.869 271.923 626.602C271.923 632.405 270.175 637.02 266.819 640.516C263.463 644.012 258.918 645.76 253.325 645.76C247.661 645.76 243.117 644.012 239.761 640.516C236.335 637.02 234.657 632.405 234.657 626.602C234.657 620.869 236.335 616.254 239.831 612.758C243.257 609.262 247.801 607.514 253.465 607.514ZM253.185 615.065C250.528 615.065 248.431 616.114 246.892 618.212C245.354 620.239 244.585 623.036 244.585 626.672C244.585 630.308 245.354 633.174 246.892 635.272C248.431 637.299 250.528 638.348 253.325 638.348C256.052 638.348 258.149 637.299 259.687 635.202C261.226 633.104 261.995 630.238 261.995 626.532C261.995 622.966 261.156 620.17 259.617 618.142C258.079 616.114 255.912 615.065 253.185 615.065ZM310.331 644.641H300.263V623.596C300.263 621.078 299.843 619.121 299.004 617.792C298.165 616.464 296.487 615.765 294.11 615.765C288.866 615.765 286.279 618.981 286.279 625.274V644.641H276.421V608.563H285.86V613.597C288.796 609.612 292.782 607.584 297.816 607.584C301.661 607.584 304.738 608.703 306.975 610.94C309.212 613.178 310.331 616.394 310.331 620.519V644.641ZM335.346 594.859V602.131C333.248 602.061 332.2 601.991 332.06 601.991C330.242 601.991 329.053 602.27 328.494 602.76C327.935 603.249 327.655 604.228 327.655 605.696V608.563H334.717V615.275H327.725V644.641H317.796V615.275H311.923V608.563H317.796V606.675C317.796 602.48 318.705 599.404 320.663 597.516C322.551 595.628 325.697 594.649 330.172 594.649C330.661 594.649 331.221 594.719 331.78 594.719C332.339 594.719 333.039 594.789 333.738 594.789C334.437 594.859 334.926 594.859 335.346 594.859ZM370.795 633.454C369.676 637.369 367.579 640.376 364.572 642.473C361.566 644.641 358 645.69 353.805 645.69C348.281 645.69 343.807 644.012 340.45 640.516C337.094 637.09 335.416 632.545 335.416 626.812C335.416 621.218 337.094 616.604 340.52 612.968C343.876 609.332 348.211 607.514 353.525 607.514C358.979 607.514 363.314 609.402 366.53 613.108C369.746 616.813 371.354 621.848 371.354 628.14V629.119H345.485C345.485 632.265 346.254 634.643 347.722 636.251C349.19 637.929 351.288 638.698 353.945 638.698C357.441 638.698 359.888 636.95 361.286 633.454H370.795ZM361.216 622.826C361.006 620.449 360.237 618.561 358.909 617.023C357.65 615.485 355.832 614.716 353.455 614.716C351.288 614.716 349.47 615.485 348.002 616.883C346.603 618.352 345.694 620.309 345.415 622.826H361.216ZM398.358 607.934V617.093C396.96 616.813 395.631 616.674 394.513 616.674C391.226 616.674 388.849 617.722 387.311 619.82C385.773 621.917 385.004 624.644 385.004 628.14V644.641H375.075V608.563H384.514V615.205C386.891 610.241 390.737 607.724 396.191 607.724C396.61 607.724 397.379 607.794 398.358 607.934ZM432.694 633.454C431.576 637.369 429.478 640.376 426.472 642.473C423.465 644.641 419.899 645.69 415.704 645.69C410.181 645.69 405.706 644.012 402.35 640.516C398.994 637.09 397.316 632.545 397.316 626.812C397.316 621.218 398.994 616.604 402.42 612.968C405.776 609.332 410.111 607.514 415.425 607.514C420.878 607.514 425.213 609.402 428.429 613.108C431.646 616.813 433.254 621.848 433.254 628.14V629.119H407.384C407.384 632.265 408.153 634.643 409.621 636.251C411.09 637.929 413.187 638.698 415.844 638.698C419.34 638.698 421.787 636.95 423.186 633.454H432.694ZM423.116 622.826C422.906 620.449 422.137 618.561 420.808 617.023C419.55 615.485 417.732 614.716 415.355 614.716C413.187 614.716 411.369 615.485 409.901 616.883C408.503 618.352 407.594 620.309 407.314 622.826H423.116ZM470.815 644.641H460.747V623.596C460.747 621.078 460.327 619.121 459.488 617.792C458.649 616.464 456.971 615.765 454.594 615.765C449.35 615.765 446.763 618.981 446.763 625.274V644.641H436.905V608.563H446.344V613.597C449.28 609.612 453.266 607.584 458.3 607.584C462.145 607.584 465.222 608.703 467.459 610.94C469.696 613.178 470.815 616.394 470.815 620.519V644.641ZM510.583 630.727C509.953 635.412 508.136 639.047 505.059 641.704C501.983 644.291 498.067 645.62 493.313 645.62C487.719 645.62 483.315 643.872 479.959 640.516C476.602 637.09 474.924 632.545 474.924 626.882C474.924 621.078 476.602 616.394 479.959 612.828C483.315 609.332 487.859 607.514 493.453 607.514C498.207 607.514 502.123 608.773 505.199 611.22C508.205 613.667 509.953 616.953 510.373 621.148H500.654C499.885 617.023 497.508 614.926 493.523 614.926C490.796 614.926 488.698 615.974 487.16 618.072C485.622 620.17 484.923 623.036 484.923 626.742C484.923 630.308 485.622 633.104 487.09 635.062C488.558 637.02 490.656 637.999 493.313 637.999C497.648 637.999 500.165 635.621 501.004 630.727H510.583ZM548.144 633.454C547.025 637.369 544.928 640.376 541.921 642.473C538.915 644.641 535.349 645.69 531.154 645.69C525.63 645.69 521.156 644.012 517.8 640.516C514.443 637.09 512.765 632.545 512.765 626.812C512.765 621.218 514.443 616.604 517.869 612.968C521.226 609.332 525.56 607.514 530.874 607.514C536.328 607.514 540.663 609.402 543.879 613.108C547.095 616.813 548.703 621.848 548.703 628.14V629.119H522.834C522.834 632.265 523.603 634.643 525.071 636.251C526.539 637.929 528.637 638.698 531.294 638.698C534.79 638.698 537.237 636.95 538.635 633.454H548.144ZM538.565 622.826C538.355 620.449 537.586 618.561 536.258 617.023C534.999 615.485 533.182 614.716 530.804 614.716C528.637 614.716 526.819 615.485 525.351 616.883C523.952 618.352 523.043 620.309 522.764 622.826H538.565ZM563.751 633.734V644.641H552.704V633.734H563.751ZM580.554 608.563V644.711C580.554 649.465 579.645 652.821 577.967 654.779C576.289 656.737 573.142 657.716 568.528 657.716C567.199 657.716 565.871 657.716 564.543 657.576V649.605C565.102 649.675 565.661 649.675 566.36 649.675C567.339 649.675 568.178 649.605 568.738 649.395C569.297 649.255 569.786 648.906 570.066 648.347C570.346 647.857 570.486 647.368 570.556 646.808C570.556 646.319 570.625 645.55 570.625 644.431V608.563H580.554ZM580.554 594.859V603.389H570.625V594.859H580.554ZM620.569 644.641H610.431C610.152 643.732 609.872 642.543 609.732 641.145C606.726 644.221 602.81 645.69 598.056 645.69C594.07 645.69 590.924 644.781 588.617 642.823C586.379 640.865 585.191 638.208 585.191 634.782C585.191 633.244 585.401 631.916 585.82 630.727C586.24 629.608 586.869 628.63 587.778 627.791C588.687 627.021 589.526 626.392 590.365 625.833C591.204 625.343 592.322 624.924 593.721 624.574C595.189 624.295 596.378 624.015 597.217 623.875C598.126 623.735 599.384 623.526 600.992 623.316C604.488 622.896 606.796 622.407 607.984 621.848C609.173 621.358 609.802 620.379 609.802 618.981C609.802 615.765 607.635 614.157 603.3 614.157C600.992 614.157 599.314 614.576 598.265 615.415C597.147 616.254 596.448 617.652 596.168 619.68H586.869C587.428 611.57 592.952 607.514 603.579 607.514C614.067 607.514 619.311 611.43 619.311 619.261V634.852C619.311 639.467 619.73 642.683 620.569 644.641ZM609.662 627.091C608.543 627.791 606.166 628.49 602.67 629.049C599.734 629.469 597.846 630.098 596.937 630.797C595.958 631.636 595.399 632.895 595.399 634.433C595.399 635.901 595.888 637.09 596.867 637.929C597.846 638.768 599.174 639.187 600.852 639.187C603.509 639.187 605.677 638.488 607.285 637.09C608.893 635.691 609.662 633.664 609.662 631.147V627.091ZM634.848 594.859V612.968C637.645 609.472 641.42 607.724 646.245 607.724C650.999 607.724 654.775 609.472 657.571 612.968C660.298 616.464 661.697 620.939 661.697 626.252C661.697 632.056 660.158 636.74 657.222 640.306C654.285 643.872 650.44 645.62 645.685 645.62C640.651 645.62 636.876 643.802 634.359 640.096L634.428 644.641H624.99V594.859H634.848ZM643.168 615.345C640.511 615.345 638.344 616.394 636.806 618.352C635.267 620.309 634.498 623.036 634.498 626.392C634.498 629.888 635.267 632.685 636.806 634.643C638.344 636.67 640.441 637.649 643.168 637.649C645.685 637.649 647.783 636.67 649.321 634.573C650.859 632.545 651.698 629.818 651.698 626.322C651.698 623.036 650.859 620.379 649.321 618.352C647.783 616.394 645.685 615.345 643.168 615.345ZM675.493 594.859V612.968C678.29 609.472 682.066 607.724 686.89 607.724C691.644 607.724 695.42 609.472 698.217 612.968C700.944 616.464 702.342 620.939 702.342 626.252C702.342 632.056 700.804 636.74 697.867 640.306C694.931 643.872 691.085 645.62 686.331 645.62C681.297 645.62 677.521 643.802 675.004 640.096L675.074 644.641H665.635V594.859H675.493ZM683.814 615.345C681.157 615.345 678.989 616.394 677.451 618.352C675.913 620.309 675.144 623.036 675.144 626.392C675.144 629.888 675.913 632.685 677.451 634.643C678.989 636.67 681.087 637.649 683.814 637.649C686.331 637.649 688.428 636.67 689.966 634.573C691.505 632.545 692.344 629.818 692.344 626.322C692.344 623.036 691.505 620.379 689.966 618.352C688.428 616.394 686.331 615.345 683.814 615.345ZM740.261 633.454C739.142 637.369 737.044 640.376 734.038 642.473C731.031 644.641 727.466 645.69 723.27 645.69C717.747 645.69 713.272 644.012 709.916 640.516C706.56 637.09 704.882 632.545 704.882 626.812C704.882 621.218 706.56 616.604 709.986 612.968C713.342 609.332 717.677 607.514 722.991 607.514C728.444 607.514 732.779 609.402 735.996 613.108C739.212 616.813 740.82 621.848 740.82 628.14V629.119H714.95C714.95 632.265 715.719 634.643 717.188 636.251C718.656 637.929 720.753 638.698 723.41 638.698C726.906 638.698 729.353 636.95 730.752 633.454H740.261ZM730.682 622.826C730.472 620.449 729.703 618.561 728.374 617.023C727.116 615.485 725.298 614.716 722.921 614.716C720.753 614.716 718.935 615.485 717.467 616.883C716.069 618.352 715.16 620.309 714.88 622.826H730.682ZM767.824 607.934V617.093C766.425 616.813 765.097 616.674 763.978 616.674C760.692 616.674 758.315 617.722 756.777 619.82C755.238 621.917 754.469 624.644 754.469 628.14V644.641H744.541V608.563H753.98V615.205C756.357 610.241 760.203 607.724 765.656 607.724C766.076 607.724 766.845 607.794 767.824 607.934ZM799.963 619.051L790.664 619.121C790.384 617.303 789.755 615.974 788.636 615.275C787.518 614.506 785.909 614.157 783.812 614.157C782.064 614.157 780.666 614.436 779.687 615.065C778.708 615.695 778.218 616.604 778.218 617.722C778.218 618.981 778.778 619.89 779.896 620.449C781.015 620.939 783.043 621.498 785.909 622.127C786.469 622.197 786.818 622.267 787.028 622.337C788.706 622.617 790.104 622.896 791.083 623.176C792.062 623.456 793.321 623.875 794.719 624.435C796.187 624.994 797.306 625.693 798.075 626.392C798.914 627.091 799.613 628.07 800.173 629.259C800.802 630.517 801.082 631.916 801.082 633.454C801.082 637.23 799.613 640.236 796.677 642.403C793.74 644.641 789.755 645.69 784.581 645.69C779.687 645.69 775.701 644.641 772.485 642.543C769.339 640.446 767.731 637.23 767.661 632.895H777.1C777.449 636.95 780.036 638.908 784.791 638.908C786.818 638.908 788.426 638.558 789.615 637.719C790.804 636.88 791.363 635.831 791.363 634.433C791.363 633.104 790.874 632.126 789.755 631.566C788.706 631.007 786.748 630.447 783.812 629.748C783.602 629.748 783.392 629.678 783.253 629.608C782.973 629.539 782.204 629.399 781.085 629.119C779.966 628.909 779.197 628.769 778.778 628.63C778.358 628.49 777.589 628.28 776.61 628C775.631 627.721 774.862 627.511 774.373 627.231C773.953 626.952 773.324 626.672 772.555 626.252C771.786 625.833 771.227 625.413 770.807 624.924C770.457 624.504 770.038 623.945 769.618 623.316C769.199 622.687 768.849 621.987 768.71 621.148C768.57 620.379 768.5 619.54 768.5 618.561C768.5 615.065 769.828 612.339 772.625 610.381C775.352 608.493 779.267 607.514 784.301 607.514C788.776 607.514 792.482 608.493 795.418 610.311C798.285 612.199 799.823 615.135 799.963 619.051ZM816.401 633.734V644.641H805.354V633.734H816.401ZM840.056 607.514C845.58 607.514 850.054 609.262 853.41 612.758C856.767 616.254 858.514 620.869 858.514 626.602C858.514 632.405 856.767 637.02 853.41 640.516C850.054 644.012 845.51 645.76 839.916 645.76C834.253 645.76 829.708 644.012 826.352 640.516C822.926 637.02 821.248 632.405 821.248 626.602C821.248 620.869 822.926 616.254 826.422 612.758C829.848 609.262 834.393 607.514 840.056 607.514ZM839.776 615.065C837.12 615.065 835.022 616.114 833.484 618.212C831.946 620.239 831.176 623.036 831.176 626.672C831.176 630.308 831.946 633.174 833.484 635.272C835.022 637.299 837.12 638.348 839.916 638.348C842.643 638.348 844.741 637.299 846.279 635.202C847.817 633.104 848.586 630.238 848.586 626.532C848.586 622.966 847.747 620.17 846.209 618.142C844.671 616.114 842.503 615.065 839.776 615.065ZM896.922 644.641H886.854V623.596C886.854 621.078 886.435 619.121 885.596 617.792C884.757 616.464 883.079 615.765 880.701 615.765C875.458 615.765 872.871 618.981 872.871 625.274V644.641H863.012V608.563H872.451V613.597C875.388 609.612 879.373 607.584 884.407 607.584C888.253 607.584 891.329 608.703 893.566 610.94C895.804 613.178 896.922 616.394 896.922 620.519V644.641ZM936.201 633.454C935.082 637.369 932.984 640.376 929.978 642.473C926.971 644.641 923.406 645.69 919.211 645.69C913.687 645.69 909.212 644.012 905.856 640.516C902.5 637.09 900.822 632.545 900.822 626.812C900.822 621.218 902.5 616.604 905.926 612.968C909.282 609.332 913.617 607.514 918.931 607.514C924.384 607.514 928.719 609.402 931.936 613.108C935.152 616.813 936.76 621.848 936.76 628.14V629.119H910.89C910.89 632.265 911.659 634.643 913.128 636.251C914.596 637.929 916.693 638.698 919.35 638.698C922.846 638.698 925.293 636.95 926.692 633.454H936.201ZM926.622 622.826C926.412 620.449 925.643 618.561 924.315 617.023C923.056 615.485 921.238 614.716 918.861 614.716C916.693 614.716 914.876 615.485 913.407 616.883C912.009 618.352 911.1 620.309 910.82 622.826H926.622Z" fill="white"/>
<defs>
<filter id="filter0_dd_7_2" x="124.684" y="408.144" width="833.142" height="183.811" filterUnits="userSpaceOnUse" color-interpolation-filters="sRGB">
<feFlood flood-opacity="0" result="BackgroundImageFix"/>
<feColorMatrix in="SourceAlpha" type="matrix" values="0 0 0 0 0 0 0 0 0 0 0 0 0 0 0 0 0 0 127 0" result="hardAlpha"/>
<feOffset/>
<feGaussianBlur stdDeviation="8.86082"/>
<feComposite in2="hardAlpha" operator="out"/>
<feColorMatrix type="matrix" values="0 0 0 0 0.305882 0 0 0 0 0.815686 0 0 0 0 0.203922 0 0 0 0.33 0"/>
<feBlend mode="screen" in2="BackgroundImageFix" result="effect1_dropShadow_7_2"/>
<feColorMatrix in="SourceAlpha" type="matrix" values="0 0 0 0 0 0 0 0 0 0 0 0 0 0 0 0 0 0 127 0" result="hardAlpha"/>
<feOffset/>
<feGaussianBlur stdDeviation="8.86082"/>
<feComposite in2="hardAlpha" operator="out"/>
<feColorMatrix type="matrix" values="0 0 0 0 0.305882 0 0 0 0 0.815686 0 0 0 0 0.203922 0 0 0 0.33 0"/>
<feBlend mode="screen" in2="effect1_dropShadow_7_2" result="effect2_dropShadow_7_2"/>
<feBlend mode="normal" in="SourceGraphic" in2="effect2_dropShadow_7_2" result="shape"/>
</filter>
</defs>
</svg>
