<svg width="1117" height="513" viewBox="0 0 1117 513" fill="none" xmlns="http://www.w3.org/2000/svg">
<path d="M422.35 196.45H260.064V193.242H422.35V196.45ZM422.35 223.183H260.064V219.975H422.35V223.183ZM422.35 249.917H260.064V246.709H422.35V249.917ZM422.35 276.65H382.818C381.277 276.65 379.351 278.343 377.039 281.73C374.727 285.116 372.801 286.809 371.26 286.809H288.036C286.495 286.809 284.568 285.116 282.257 281.73C279.945 278.343 278.018 276.65 276.477 276.65H260.064V273.442H276.477C278.018 273.442 279.945 271.749 282.257 268.363C284.568 264.977 286.495 263.283 288.036 263.283H371.26C372.801 263.283 374.727 264.977 377.039 268.363C379.351 271.749 381.277 273.442 382.818 273.442H422.35V276.65ZM422.35 303.384H405.936C404.395 303.384 402.468 305.077 400.157 308.463C397.845 311.849 395.918 313.542 394.377 313.542H380.507C378.965 313.542 377.039 311.849 374.727 308.463C372.415 305.077 370.489 303.384 368.948 303.384H313.465C311.924 303.384 309.998 305.077 307.686 308.463C305.374 311.849 303.448 313.542 301.907 313.542H288.036C286.495 313.542 284.568 311.849 282.257 308.463C279.945 305.077 278.018 303.384 276.477 303.384H260.064V300.176H276.477C278.018 300.176 279.945 298.482 282.257 295.096C284.568 291.71 286.495 290.017 288.036 290.017H301.907C303.448 290.017 305.374 291.71 307.686 295.096C309.998 298.482 311.924 300.176 313.465 300.176H368.948C370.489 300.176 372.415 298.482 374.727 295.096C377.039 291.71 378.965 290.017 380.507 290.017H394.377C395.918 290.017 397.845 291.71 400.157 295.096C402.468 298.482 404.395 300.176 405.936 300.176H422.35V303.384ZM422.35 330.117H313.465C311.924 330.117 309.998 331.81 307.686 335.197C305.374 338.583 303.448 340.276 301.907 340.276H288.036C286.495 340.276 284.568 338.583 282.257 335.197C279.945 331.81 278.018 330.117 276.477 330.117H260.064V326.909H276.477C278.018 326.909 279.945 325.216 282.257 321.83C284.568 318.443 286.495 316.75 288.036 316.75H301.907C303.448 316.75 305.374 318.443 307.686 321.83C309.998 325.216 311.924 326.909 313.465 326.909H422.35V330.117ZM422.35 356.851H313.465C311.924 356.851 309.998 358.544 307.686 361.93C305.374 365.316 303.448 367.009 301.907 367.009H288.036C286.495 367.009 284.568 365.316 282.257 361.93C279.945 358.544 278.018 356.851 276.477 356.851H260.064V353.643H276.477C278.018 353.643 279.945 351.95 282.257 348.563C284.568 345.177 286.495 343.484 288.036 343.484H301.907C303.448 343.484 305.374 345.177 307.686 348.563C309.998 351.95 311.924 353.643 313.465 353.643H422.35V356.851ZM422.35 383.584H313.465C311.924 383.584 309.998 385.277 307.686 388.664C305.374 392.05 303.448 393.743 301.907 393.743H288.036C286.495 393.743 284.568 392.05 282.257 388.664C279.945 385.277 278.018 383.584 276.477 383.584H260.064V380.376H276.477C278.018 380.376 279.945 378.683 282.257 375.297C284.568 371.911 286.495 370.217 288.036 370.217H301.907C303.448 370.217 305.374 371.911 307.686 375.297C309.998 378.683 311.924 380.376 313.465 380.376H422.35V383.584ZM422.35 410.318H260.064V407.11H422.35V410.318ZM422.35 437.051H260.064V433.843H422.35V437.051Z" fill="white"/>
<path d="M561.101 196.45H398.815V193.242H561.101V196.45ZM561.101 223.183H398.815V219.975H561.101V223.183ZM561.101 249.917H398.815V246.709H561.101V249.917ZM561.101 276.65H544.687C543.146 276.65 541.22 278.343 538.908 281.73C536.596 285.116 534.67 286.809 533.129 286.809H519.258C517.717 286.809 515.79 285.116 513.479 281.73C511.167 278.343 509.24 276.65 507.699 276.65H452.217C450.675 276.65 448.749 278.343 446.437 281.73C444.125 285.116 442.199 286.809 440.658 286.809H426.787C425.246 286.809 423.319 285.116 421.008 281.73C418.696 278.343 416.77 276.65 415.228 276.65H398.815V273.442H415.228C416.77 273.442 418.696 271.749 421.008 268.363C423.319 264.977 425.246 263.283 426.787 263.283H440.658C442.199 263.283 444.125 264.977 446.437 268.363C448.749 271.749 450.675 273.442 452.217 273.442H507.699C509.24 273.442 511.167 271.749 513.479 268.363C515.79 264.977 517.717 263.283 519.258 263.283H533.129C534.67 263.283 536.596 264.977 538.908 268.363C541.22 271.749 543.146 273.442 544.687 273.442H561.101V276.65ZM561.101 303.384H544.687C543.146 303.384 541.22 305.077 538.908 308.463C536.596 311.849 534.67 313.542 533.129 313.542H519.258C517.717 313.542 515.79 311.849 513.479 308.463C511.167 305.077 509.24 303.384 507.699 303.384H452.217C450.675 303.384 448.749 305.077 446.437 308.463C444.125 311.849 442.199 313.542 440.658 313.542H426.787C425.246 313.542 423.319 311.849 421.008 308.463C418.696 305.077 416.77 303.384 415.228 303.384H398.815V300.176H415.228C416.77 300.176 418.696 298.482 421.008 295.096C423.319 291.71 425.246 290.017 426.787 290.017H440.658C442.199 290.017 444.125 291.71 446.437 295.096C448.749 298.482 450.675 300.176 452.217 300.176H507.699C509.24 300.176 511.167 298.482 513.479 295.096C515.79 291.71 517.717 290.017 519.258 290.017H533.129C534.67 290.017 536.596 291.71 538.908 295.096C541.22 298.482 543.146 300.176 544.687 300.176H561.101V303.384ZM561.101 330.117H544.687C543.146 330.117 541.22 331.81 538.908 335.197C536.596 338.583 534.67 340.276 533.129 340.276H519.258C517.717 340.276 515.79 338.583 513.479 335.197C511.167 331.81 509.24 330.117 507.699 330.117H452.217C450.675 330.117 448.749 331.81 446.437 335.197C444.125 338.583 442.199 340.276 440.658 340.276H426.787C425.246 340.276 423.319 338.583 421.008 335.197C418.696 331.81 416.77 330.117 415.228 330.117H398.815V326.909H415.228C416.77 326.909 418.696 325.216 421.008 321.83C423.319 318.443 425.246 316.75 426.787 316.75H440.658C442.199 316.75 444.125 318.443 446.437 321.83C448.749 325.216 450.675 326.909 452.217 326.909H507.699C509.24 326.909 511.167 325.216 513.479 321.83C515.79 318.443 517.717 316.75 519.258 316.75H533.129C534.67 316.75 536.596 318.443 538.908 321.83C541.22 325.216 543.146 326.909 544.687 326.909H561.101V330.117ZM561.101 356.851H544.687C543.146 356.851 541.22 358.544 538.908 361.93C536.596 365.316 534.67 367.009 533.129 367.009H519.258C517.717 367.009 515.79 365.316 513.479 361.93C511.167 358.544 509.24 356.851 507.699 356.851H452.217C450.675 356.851 448.749 358.544 446.437 361.93C444.125 365.316 442.199 367.009 440.658 367.009H426.787C425.246 367.009 423.319 365.316 421.008 361.93C418.696 358.544 416.77 356.851 415.228 356.851H398.815V353.643H415.228C416.77 353.643 418.696 351.95 421.008 348.563C423.319 345.177 425.246 343.484 426.787 343.484H440.658C442.199 343.484 444.125 345.177 446.437 348.563C448.749 351.95 450.675 353.643 452.217 353.643H507.699C509.24 353.643 511.167 351.95 513.479 348.563C515.79 345.177 517.717 343.484 519.258 343.484H533.129C534.67 343.484 536.596 345.177 538.908 348.563C541.22 351.95 543.146 353.643 544.687 353.643H561.101V356.851ZM561.101 383.584H544.687C543.146 383.584 541.22 385.277 538.908 388.664C536.596 392.05 534.67 393.743 533.129 393.743H449.905C448.364 393.743 446.437 392.05 444.125 388.664C441.814 385.277 439.887 383.584 438.346 383.584H398.815V380.376H438.346C439.887 380.376 441.814 378.683 444.125 375.297C446.437 371.911 448.364 370.217 449.905 370.217H533.129C534.67 370.217 536.596 371.911 538.908 375.297C541.22 378.683 543.146 380.376 544.687 380.376H561.101V383.584ZM561.101 410.318H398.815V407.11H561.101V410.318ZM561.101 437.051H398.815V433.843H561.101V437.051Z" fill="white"/>
<path d="M699.852 196.45H537.566V193.242H699.852V196.45ZM699.852 223.183H537.566V219.975H699.852V223.183ZM699.852 249.917H537.566V246.709H699.852V249.917ZM699.852 276.65H683.439C681.897 276.65 679.971 278.343 677.659 281.73C675.347 285.116 673.421 286.809 671.88 286.809H588.656C587.115 286.809 585.188 285.116 582.877 281.73C580.565 278.343 578.638 276.65 577.097 276.65H537.566V273.442H577.097C578.638 273.442 580.565 271.749 582.877 268.363C585.188 264.977 587.115 263.283 588.656 263.283H671.88C673.421 263.283 675.347 264.977 677.659 268.363C679.971 271.749 681.897 273.442 683.439 273.442H699.852V276.65ZM699.852 303.384H590.968C589.427 303.384 587.5 305.077 585.188 308.463C582.877 311.849 580.95 313.542 579.409 313.542H565.538C563.997 313.542 562.071 311.849 559.759 308.463C557.447 305.077 555.521 303.384 553.98 303.384H537.566V300.176H553.98C555.521 300.176 557.447 298.482 559.759 295.096C562.071 291.71 563.997 290.017 565.538 290.017H579.409C580.95 290.017 582.877 291.71 585.188 295.096C587.5 298.482 589.427 300.176 590.968 300.176H699.852V303.384ZM699.852 330.117H660.321C658.78 330.117 656.853 331.81 654.542 335.197C652.23 338.583 650.303 340.276 648.762 340.276H588.656C587.115 340.276 585.188 338.583 582.877 335.197C580.565 331.81 578.638 330.117 577.097 330.117H537.566V326.909H577.097C578.638 326.909 580.565 325.216 582.877 321.83C585.188 318.443 587.115 316.75 588.656 316.75H648.762C650.303 316.75 652.23 318.443 654.542 321.83C656.853 325.216 658.78 326.909 660.321 326.909H699.852V330.117ZM699.852 356.851H683.439C681.897 356.851 679.971 358.544 677.659 361.93C675.347 365.316 673.421 367.009 671.88 367.009H658.009C656.468 367.009 654.541 365.316 652.23 361.93C649.918 358.544 647.991 356.851 646.45 356.851H537.566V353.643H646.45C647.991 353.643 649.918 351.95 652.23 348.563C654.541 345.177 656.468 343.484 658.009 343.484H671.88C673.421 343.484 675.347 345.177 677.659 348.563C679.971 351.95 681.897 353.643 683.439 353.643H699.852V356.851ZM699.852 383.584H660.321C658.78 383.584 656.853 385.277 654.542 388.664C652.23 392.05 650.303 393.743 648.762 393.743H565.538C563.997 393.743 562.071 392.05 559.759 388.664C557.447 385.277 555.521 383.584 553.98 383.584H537.566V380.376H553.98C555.521 380.376 557.447 378.683 559.759 375.297C562.071 371.911 563.997 370.217 565.538 370.217H648.762C650.303 370.217 652.23 371.911 654.542 375.297C656.853 378.683 658.78 380.376 660.321 380.376H699.852V383.584ZM699.852 410.318H537.566V407.11H699.852V410.318ZM699.852 437.051H537.566V433.843H699.852V437.051Z" fill="white"/>
<path d="M838.603 196.45H676.317V193.242H838.603V196.45ZM838.603 223.183H729.719C728.178 223.183 726.251 224.876 723.94 228.263C721.628 231.649 719.701 233.342 718.16 233.342H704.29C702.749 233.342 700.822 231.649 698.51 228.263C696.198 224.876 694.272 223.183 692.731 223.183H676.317V219.975H692.731C694.272 219.975 696.198 218.282 698.51 214.896C700.822 211.51 702.749 209.816 704.29 209.816H718.16C719.701 209.816 721.628 211.51 723.94 214.896C726.251 218.282 728.178 219.975 729.719 219.975H838.603V223.183ZM838.603 249.917H729.719C728.178 249.917 726.251 251.61 723.94 254.996C721.628 258.382 719.701 260.075 718.16 260.075H704.29C702.749 260.075 700.822 258.382 698.51 254.996C696.198 251.61 694.272 249.917 692.731 249.917H676.317V246.709H692.731C694.272 246.709 696.198 245.015 698.51 241.629C700.822 238.243 702.749 236.55 704.29 236.55H718.16C719.701 236.55 721.628 238.243 723.94 241.629C726.251 245.015 728.178 246.709 729.719 246.709H838.603V249.917ZM838.603 276.65H799.072C797.531 276.65 795.605 278.343 793.293 281.73C790.981 285.116 789.054 286.809 787.513 286.809H704.29C702.749 286.809 700.822 285.116 698.51 281.73C696.198 278.343 694.272 276.65 692.731 276.65H676.317V273.442H692.731C694.272 273.442 696.198 271.749 698.51 268.363C700.822 264.977 702.749 263.283 704.29 263.283H787.513C789.054 263.283 790.981 264.977 793.293 268.363C795.605 271.749 797.531 273.442 799.072 273.442H838.603V276.65ZM838.603 303.384H822.19C820.649 303.384 818.722 305.077 816.41 308.463C814.099 311.849 812.172 313.542 810.631 313.542H796.76C795.219 313.542 793.293 311.849 790.981 308.463C788.669 305.077 786.743 303.384 785.202 303.384H729.719C728.178 303.384 726.251 305.077 723.94 308.463C721.628 311.849 719.701 313.542 718.16 313.542H704.29C702.749 313.542 700.822 311.849 698.51 308.463C696.198 305.077 694.272 303.384 692.731 303.384H676.317V300.176H692.731C694.272 300.176 696.198 298.482 698.51 295.096C700.822 291.71 702.749 290.017 704.29 290.017H718.16C719.701 290.017 721.628 291.71 723.94 295.096C726.251 298.482 728.178 300.176 729.719 300.176H785.202C786.743 300.176 788.669 298.482 790.981 295.096C793.293 291.71 795.219 290.017 796.76 290.017H810.631C812.172 290.017 814.099 291.71 816.41 295.096C818.722 298.482 820.649 300.176 822.19 300.176H838.603V303.384ZM838.603 330.117H822.19C820.649 330.117 818.722 331.81 816.41 335.197C814.099 338.583 812.172 340.276 810.631 340.276H796.76C795.219 340.276 793.293 338.583 790.981 335.197C788.669 331.81 786.743 330.117 785.202 330.117H729.719C728.178 330.117 726.251 331.81 723.94 335.197C721.628 338.583 719.701 340.276 718.16 340.276H704.29C702.749 340.276 700.822 338.583 698.51 335.197C696.198 331.81 694.272 330.117 692.731 330.117H676.317V326.909H692.731C694.272 326.909 696.198 325.216 698.51 321.83C700.822 318.443 702.749 316.75 704.29 316.75H718.16C719.701 316.75 721.628 318.443 723.94 321.83C726.251 325.216 728.178 326.909 729.719 326.909H785.202C786.743 326.909 788.669 325.216 790.981 321.83C793.293 318.443 795.219 316.75 796.76 316.75H810.631C812.172 316.75 814.099 318.443 816.41 321.83C818.722 325.216 820.649 326.909 822.19 326.909H838.603V330.117ZM838.603 356.851H822.19C820.649 356.851 818.722 358.544 816.41 361.93C814.099 365.316 812.172 367.009 810.631 367.009H796.76C795.219 367.009 793.293 365.316 790.981 361.93C788.669 358.544 786.743 356.851 785.202 356.851H729.719C728.178 356.851 726.251 358.544 723.94 361.93C721.628 365.316 719.701 367.009 718.16 367.009H704.29C702.749 367.009 700.822 365.316 698.51 361.93C696.198 358.544 694.272 356.851 692.731 356.851H676.317V353.643H692.731C694.272 353.643 696.198 351.95 698.51 348.563C700.822 345.177 702.749 343.484 704.29 343.484H718.16C719.701 343.484 721.628 345.177 723.94 348.563C726.251 351.95 728.178 353.643 729.719 353.643H785.202C786.743 353.643 788.669 351.95 790.981 348.563C793.293 345.177 795.219 343.484 796.76 343.484H810.631C812.172 343.484 814.099 345.177 816.41 348.563C818.722 351.95 820.649 353.643 822.19 353.643H838.603V356.851ZM838.603 383.584H822.19C820.649 383.584 818.722 385.277 816.41 388.664C814.099 392.05 812.172 393.743 810.631 393.743H796.76C795.219 393.743 793.293 392.05 790.981 388.664C788.669 385.277 786.743 383.584 785.202 383.584H729.719C728.178 383.584 726.251 385.277 723.94 388.664C721.628 392.05 719.701 393.743 718.16 393.743H704.29C702.749 393.743 700.822 392.05 698.51 388.664C696.198 385.277 694.272 383.584 692.731 383.584H676.317V380.376H692.731C694.272 380.376 696.198 378.683 698.51 375.297C700.822 371.911 702.749 370.217 704.29 370.217H718.16C719.701 370.217 721.628 371.911 723.94 375.297C726.251 378.683 728.178 380.376 729.719 380.376H785.202C786.743 380.376 788.669 378.683 790.981 375.297C793.293 371.911 795.219 370.217 796.76 370.217H810.631C812.172 370.217 814.099 371.911 816.41 375.297C818.722 378.683 820.649 380.376 822.19 380.376H838.603V383.584ZM838.603 410.318H676.317V407.11H838.603V410.318ZM838.603 437.051H676.317V433.843H838.603V437.051Z" fill="white"/>
<path d="M977.355 196.45H815.068V193.242H977.355V196.45ZM977.355 223.183H815.068V219.975H977.355V223.183ZM977.355 249.917H891.588C890.047 249.917 888.12 251.61 885.809 254.996C883.497 258.382 881.57 260.075 880.029 260.075H866.159C864.617 260.075 862.691 258.382 860.379 254.996C858.067 251.61 856.141 249.917 854.6 249.917H815.068V246.709H854.6C856.141 246.709 858.067 245.015 860.379 241.629C862.691 238.243 864.617 236.55 866.159 236.55H880.029C881.57 236.55 883.497 238.243 885.809 241.629C888.12 245.015 890.047 246.709 891.588 246.709H977.355V249.917ZM977.355 276.65H960.941C959.4 276.65 957.473 278.343 955.162 281.73C952.85 285.116 950.923 286.809 949.382 286.809H843.041C841.5 286.809 839.573 285.116 837.261 281.73C834.95 278.343 833.023 276.65 831.482 276.65H815.068V273.442H831.482C833.023 273.442 834.95 271.749 837.261 268.363C839.573 264.977 841.5 263.283 843.041 263.283H949.382C950.923 263.283 952.85 264.977 955.162 268.363C957.473 271.749 959.4 273.442 960.941 273.442H977.355V276.65ZM977.355 303.384H891.588C890.047 303.384 888.12 305.077 885.809 308.463C883.497 311.849 881.57 313.542 880.029 313.542H866.159C864.617 313.542 862.691 311.849 860.379 308.463C858.067 305.077 856.141 303.384 854.6 303.384H815.068V300.176H854.6C856.141 300.176 858.067 298.482 860.379 295.096C862.691 291.71 864.617 290.017 866.159 290.017H880.029C881.57 290.017 883.497 291.71 885.809 295.096C888.12 298.482 890.047 300.176 891.588 300.176H977.355V303.384ZM977.355 330.117H891.588C890.047 330.117 888.12 331.81 885.809 335.197C883.497 338.583 881.57 340.276 880.029 340.276H866.159C864.617 340.276 862.691 338.583 860.379 335.197C858.067 331.81 856.141 330.117 854.6 330.117H815.068V326.909H854.6C856.141 326.909 858.067 325.216 860.379 321.83C862.691 318.443 864.617 316.75 866.159 316.75H880.029C881.57 316.75 883.497 318.443 885.809 321.83C888.12 325.216 890.047 326.909 891.588 326.909H977.355V330.117ZM977.355 356.851H891.588C890.047 356.851 888.12 358.544 885.809 361.93C883.497 365.316 881.57 367.009 880.029 367.009H866.159C864.617 367.009 862.691 365.316 860.379 361.93C858.067 358.544 856.141 356.851 854.6 356.851H815.068V353.643H854.6C856.141 353.643 858.067 351.95 860.379 348.563C862.691 345.177 864.617 343.484 866.159 343.484H880.029C881.57 343.484 883.497 345.177 885.809 348.563C888.12 351.95 890.047 353.643 891.588 353.643H977.355V356.851ZM977.355 383.584H960.941C959.4 383.584 957.473 385.277 955.162 388.664C952.85 392.05 950.923 393.743 949.382 393.743H889.276C887.735 393.743 885.809 392.05 883.497 388.664C881.185 385.277 879.259 383.584 877.717 383.584H815.068V380.376H877.717C879.259 380.376 881.185 378.683 883.497 375.297C885.809 371.911 887.735 370.217 889.276 370.217H949.382C950.923 370.217 952.85 371.911 955.162 375.297C957.473 378.683 959.4 380.376 960.941 380.376H977.355V383.584ZM977.355 410.318H815.068V407.11H977.355V410.318ZM977.355 437.051H815.068V433.843H977.355V437.051Z" fill="white"/>
<path d="M1116.11 196.45H953.82V193.242H1116.11V196.45ZM1116.11 223.183H1053.46C1051.92 223.183 1049.99 224.876 1047.68 228.263C1045.37 231.649 1043.44 233.342 1041.9 233.342H1028.03C1026.49 233.342 1024.56 231.649 1022.25 228.263C1019.94 224.876 1018.01 223.183 1016.47 223.183H953.82V219.975H1016.47C1018.01 219.975 1019.94 218.282 1022.25 214.896C1024.56 211.51 1026.49 209.816 1028.03 209.816H1041.9C1043.44 209.816 1045.37 211.51 1047.68 214.896C1049.99 218.282 1051.92 219.975 1053.46 219.975H1116.11V223.183ZM1116.11 249.917H953.82V246.709H1116.11V249.917ZM1116.11 276.65H1053.46C1051.92 276.65 1049.99 278.343 1047.68 281.73C1045.37 285.116 1043.44 286.809 1041.9 286.809H981.792C980.251 286.809 978.325 285.116 976.013 281.73C973.701 278.343 971.775 276.65 970.233 276.65H953.82V273.442H970.233C971.775 273.442 973.701 271.749 976.013 268.363C978.325 264.977 980.251 263.283 981.792 263.283H1041.9C1043.44 263.283 1045.37 264.977 1047.68 268.363C1049.99 271.749 1051.92 273.442 1053.46 273.442H1116.11V276.65ZM1116.11 303.384H1053.46C1051.92 303.384 1049.99 305.077 1047.68 308.463C1045.37 311.849 1043.44 313.542 1041.9 313.542H1028.03C1026.49 313.542 1024.56 311.849 1022.25 308.463C1019.94 305.077 1018.01 303.384 1016.47 303.384H953.82V300.176H1016.47C1018.01 300.176 1019.94 298.482 1022.25 295.096C1024.56 291.71 1026.49 290.017 1028.03 290.017H1041.9C1043.44 290.017 1045.37 291.71 1047.68 295.096C1049.99 298.482 1051.92 300.176 1053.46 300.176H1116.11V303.384ZM1116.11 330.117H1053.46C1051.92 330.117 1049.99 331.81 1047.68 335.197C1045.37 338.583 1043.44 340.276 1041.9 340.276H1028.03C1026.49 340.276 1024.56 338.583 1022.25 335.197C1019.94 331.81 1018.01 330.117 1016.47 330.117H953.82V326.909H1016.47C1018.01 326.909 1019.94 325.216 1022.25 321.83C1024.56 318.443 1026.49 316.75 1028.03 316.75H1041.9C1043.44 316.75 1045.37 318.443 1047.68 321.83C1049.99 325.216 1051.92 326.909 1053.46 326.909H1116.11V330.117ZM1116.11 356.851H1053.46C1051.92 356.851 1049.99 358.544 1047.68 361.93C1045.37 365.316 1043.44 367.009 1041.9 367.009H1028.03C1026.49 367.009 1024.56 365.316 1022.25 361.93C1019.94 358.544 1018.01 356.851 1016.47 356.851H953.82V353.643H1016.47C1018.01 353.643 1019.94 351.95 1022.25 348.563C1024.56 345.177 1026.49 343.484 1028.03 343.484H1041.9C1043.44 343.484 1045.37 345.177 1047.68 348.563C1049.99 351.95 1051.92 353.643 1053.46 353.643H1116.11V356.851ZM1116.11 383.584H1099.69C1098.15 383.584 1096.22 385.277 1093.91 388.664C1091.6 392.05 1089.67 393.743 1088.13 393.743H981.792C980.251 393.743 978.325 392.05 976.013 388.664C973.701 385.277 971.775 383.584 970.233 383.584H953.82V380.376H970.233C971.775 380.376 973.701 378.683 976.013 375.297C978.325 371.911 980.251 370.217 981.792 370.217H1088.13C1089.67 370.217 1091.6 371.911 1093.91 375.297C1096.22 378.683 1098.15 380.376 1099.69 380.376H1116.11V383.584ZM1116.11 410.318H953.82V407.11H1116.11V410.318ZM1116.11 437.051H953.82V433.843H1116.11V437.051Z" fill="white"/>
<path fill-rule="evenodd" clip-rule="evenodd" d="M182.406 14.448C182.406 6.46857 188.874 0 196.854 0H253.743C261.722 0 268.191 6.4686 268.191 14.448V430.447C268.191 434.279 266.668 437.954 263.959 440.663L196.854 507.768C194.144 510.478 190.469 512 186.637 512H140.868C132.888 512 126.42 505.531 126.42 497.552V440.663H85.7848V487.336C85.7848 500.208 70.2223 506.654 61.1206 497.552L4.23171 440.663C1.5222 437.954 0 434.279 0 430.447V347.938C0 344.106 1.52219 340.431 4.23171 337.721L71.3369 270.616C74.0464 267.907 77.7213 266.384 81.5531 266.384H143.577C151.556 266.384 158.025 272.853 158.025 280.832V310.631H209.496V244.996L186.637 222.138C183.928 219.428 182.406 215.753 182.406 211.921V14.448ZM253.743 14.448H196.854V211.921L219.712 234.78C222.421 237.489 223.944 241.164 223.944 244.996V310.631C223.944 318.611 217.475 325.079 209.496 325.079H158.025C150.045 325.079 143.577 318.611 143.577 310.631V280.832H81.5531L14.448 347.938L14.448 430.447L71.3369 487.336V440.663C71.3369 432.684 77.8054 426.215 85.7848 426.215H126.42C134.399 426.215 140.868 432.684 140.868 440.663V497.552H186.637L253.743 430.447V14.448Z" fill="white"/>
<path d="M521.742 500.882H514.658C514.463 500.247 514.267 499.416 514.17 498.439C512.069 500.588 509.333 501.614 506.011 501.614C503.227 501.614 501.028 500.979 499.416 499.611C497.853 498.244 497.022 496.387 497.022 493.993C497.022 492.919 497.169 491.99 497.462 491.16C497.755 490.378 498.195 489.694 498.83 489.108C499.465 488.571 500.051 488.131 500.637 487.74C501.224 487.398 502.005 487.105 502.982 486.861C504.008 486.666 504.839 486.47 505.425 486.372C506.06 486.275 506.939 486.128 508.063 485.982C510.506 485.688 512.118 485.346 512.948 484.956C513.779 484.614 514.218 483.93 514.218 482.953C514.218 480.706 512.704 479.582 509.675 479.582C508.063 479.582 506.891 479.875 506.158 480.461C505.376 481.047 504.888 482.025 504.692 483.441H498.195C498.586 477.774 502.445 474.941 509.871 474.941C517.198 474.941 520.862 477.677 520.862 483.148V494.042C520.862 497.267 521.156 499.514 521.742 500.882ZM514.121 488.62C513.339 489.108 511.678 489.597 509.236 489.987C507.184 490.281 505.865 490.72 505.23 491.209C504.546 491.795 504.155 492.674 504.155 493.749C504.155 494.775 504.497 495.606 505.181 496.192C505.865 496.778 506.793 497.071 507.965 497.071C509.822 497.071 511.336 496.583 512.46 495.606C513.583 494.628 514.121 493.212 514.121 491.453V488.62ZM558.31 483.002L551.812 483.05C551.617 481.78 551.177 480.852 550.396 480.364C549.614 479.826 548.49 479.582 547.025 479.582C545.804 479.582 544.826 479.777 544.143 480.217C543.459 480.657 543.117 481.292 543.117 482.073C543.117 482.953 543.507 483.588 544.289 483.979C545.071 484.321 546.487 484.711 548.49 485.151C548.881 485.2 549.125 485.249 549.272 485.298C550.445 485.493 551.422 485.688 552.105 485.884C552.789 486.079 553.669 486.372 554.646 486.763C555.672 487.154 556.453 487.643 556.991 488.131C557.577 488.62 558.065 489.304 558.456 490.134C558.896 491.013 559.091 491.99 559.091 493.065C559.091 495.703 558.065 497.804 556.014 499.318C553.962 500.882 551.177 501.614 547.562 501.614C544.143 501.614 541.358 500.882 539.111 499.416C536.912 497.95 535.789 495.703 535.74 492.674H542.335C542.579 495.508 544.387 496.876 547.709 496.876C549.125 496.876 550.249 496.631 551.08 496.045C551.91 495.459 552.301 494.726 552.301 493.749C552.301 492.821 551.959 492.137 551.177 491.746C550.445 491.355 549.077 490.965 547.025 490.476C546.878 490.476 546.732 490.427 546.634 490.378C546.439 490.329 545.901 490.232 545.12 490.036C544.338 489.89 543.801 489.792 543.507 489.694C543.214 489.597 542.677 489.45 541.993 489.255C541.309 489.059 540.772 488.913 540.43 488.717C540.137 488.522 539.697 488.326 539.16 488.033C538.622 487.74 538.231 487.447 537.938 487.105C537.694 486.812 537.401 486.421 537.108 485.982C536.815 485.542 536.57 485.053 536.473 484.467C536.375 483.93 536.326 483.344 536.326 482.66C536.326 480.217 537.254 478.312 539.208 476.944C541.114 475.625 543.849 474.941 547.367 474.941C550.493 474.941 553.083 475.625 555.134 476.895C557.137 478.214 558.212 480.266 558.31 483.002ZM575.658 475.674V480.412H570.528V492.284C570.528 493.016 570.528 493.554 570.577 493.896C570.577 494.238 570.724 494.58 570.919 494.97C571.114 495.312 571.408 495.557 571.798 495.654C572.189 495.752 572.775 495.801 573.557 495.801C574.388 495.801 575.072 495.801 575.658 495.703V500.979C573.948 501.126 572.531 501.175 571.456 501.175C568.428 501.175 566.327 500.686 565.252 499.611C564.177 498.537 563.64 496.485 563.64 493.456V480.364H559.439V475.674H563.64V468.053H570.528V475.674H575.658ZM601.137 475.674V500.882H594.542V497.315C592.588 500.198 589.852 501.614 586.335 501.614C583.55 501.614 581.401 500.882 579.838 499.367C578.274 497.853 577.542 495.606 577.542 492.626V475.674H584.528V490.085C584.528 491.062 584.528 491.795 584.625 492.381C584.723 492.967 584.869 493.505 585.163 494.091C585.407 494.677 585.847 495.117 586.433 495.41C587.019 495.703 587.801 495.801 588.778 495.801C592.393 495.801 594.249 493.456 594.249 488.668V475.674H601.137ZM629.558 500.882H622.963V497.657C621.302 500.295 618.762 501.566 615.342 501.566C611.874 501.566 609.089 500.393 607.037 497.95C604.986 495.508 603.96 492.284 603.96 488.18C603.96 484.223 604.937 481.047 606.94 478.654C608.943 476.211 611.63 475.039 615 475.039C616.564 475.039 618.029 475.332 619.397 476.016C620.765 476.651 621.889 477.579 622.67 478.8V466.099H629.558V500.882ZM622.866 488.229C622.866 485.786 622.377 483.93 621.302 482.562C620.228 481.194 618.762 480.51 616.906 480.51C615 480.51 613.535 481.194 612.509 482.562C611.434 483.93 610.946 485.786 610.946 488.229C610.946 490.671 611.434 492.577 612.509 493.945C613.584 495.312 615.049 496.045 616.906 496.045C618.811 496.045 620.276 495.361 621.302 493.993C622.377 492.626 622.866 490.72 622.866 488.229ZM657.078 493.065C656.297 495.801 654.831 497.902 652.731 499.367C650.63 500.882 648.138 501.614 645.207 501.614C641.348 501.614 638.221 500.442 635.876 497.999C633.532 495.606 632.359 492.43 632.359 488.424C632.359 484.516 633.532 481.292 635.925 478.751C638.27 476.211 641.299 474.941 645.012 474.941C648.822 474.941 651.851 476.26 654.098 478.849C656.346 481.438 657.469 484.956 657.469 489.352V490.036H639.394C639.394 492.235 639.931 493.896 640.957 495.019C641.983 496.192 643.449 496.729 645.305 496.729C647.748 496.729 649.457 495.508 650.435 493.065H657.078ZM650.386 485.64C650.239 483.979 649.702 482.66 648.774 481.585C647.894 480.51 646.624 479.973 644.963 479.973C643.449 479.973 642.178 480.51 641.153 481.487C640.175 482.513 639.54 483.881 639.345 485.64H650.386ZM683.714 500.882H676.679V486.177C676.679 484.418 676.386 483.05 675.8 482.122C675.213 481.194 674.041 480.706 672.38 480.706C668.716 480.706 666.908 482.953 666.908 487.349V500.882H660.02V475.674H666.615V479.191C668.667 476.406 671.452 474.99 674.969 474.99C677.656 474.99 679.806 475.771 681.369 477.335C682.932 478.898 683.714 481.145 683.714 484.027V500.882ZM701.338 475.674V480.412H696.209V492.284C696.209 493.016 696.209 493.554 696.258 493.896C696.258 494.238 696.404 494.58 696.6 494.97C696.795 495.312 697.088 495.557 697.479 495.654C697.87 495.752 698.456 495.801 699.238 495.801C700.068 495.801 700.752 495.801 701.338 495.703V500.979C699.629 501.126 698.212 501.175 697.137 501.175C694.108 501.175 692.008 500.686 690.933 499.611C689.858 498.537 689.321 496.485 689.321 493.456V480.364H685.119V475.674H689.321V468.053H696.209V475.674H701.338ZM717.829 484.467V490.671H703.125V484.467H717.829ZM728.734 466.099V500.882H721.797V466.099H728.734ZM756.425 493.065C755.643 495.801 754.177 497.902 752.077 499.367C749.976 500.882 747.485 501.614 744.553 501.614C740.694 501.614 737.568 500.442 735.223 497.999C732.878 495.606 731.705 492.43 731.705 488.424C731.705 484.516 732.878 481.292 735.271 478.751C737.616 476.211 740.645 474.941 744.358 474.941C748.169 474.941 751.197 476.26 753.445 478.849C755.692 481.438 756.815 484.956 756.815 489.352V490.036H738.74C738.74 492.235 739.277 493.896 740.303 495.019C741.329 496.192 742.795 496.729 744.651 496.729C747.094 496.729 748.804 495.508 749.781 493.065H756.425ZM749.732 485.64C749.585 483.979 749.048 482.66 748.12 481.585C747.24 480.51 745.97 479.973 744.309 479.973C742.795 479.973 741.525 480.51 740.499 481.487C739.522 482.513 738.887 483.881 738.691 485.64H749.732ZM783.89 500.882H777.295V497.657C775.634 500.295 773.094 501.566 769.674 501.566C766.206 501.566 763.421 500.393 761.369 497.95C759.318 495.508 758.292 492.284 758.292 488.18C758.292 484.223 759.269 481.047 761.272 478.654C763.275 476.211 765.962 475.039 769.332 475.039C770.896 475.039 772.361 475.332 773.729 476.016C775.097 476.651 776.221 477.579 777.002 478.8V466.099H783.89V500.882ZM777.198 488.229C777.198 485.786 776.709 483.93 775.634 482.562C774.56 481.194 773.094 480.51 771.238 480.51C769.332 480.51 767.867 481.194 766.841 482.562C765.766 483.93 765.278 485.786 765.278 488.229C765.278 490.671 765.766 492.577 766.841 493.945C767.916 495.312 769.381 496.045 771.238 496.045C773.143 496.045 774.608 495.361 775.634 493.993C776.709 492.626 777.198 490.72 777.198 488.229ZM825.105 466.099V472.498H808.202V480.559H822.906V486.617H808.202V500.882H800.581V466.099H825.105ZM843.804 465.268C848.885 465.268 852.988 466.978 856.115 470.349C859.242 473.72 860.854 478.116 860.854 483.539C860.854 489.01 859.242 493.407 856.115 496.729C852.988 500.051 848.836 501.712 843.755 501.712C838.577 501.712 834.424 500.051 831.298 496.729C828.122 493.407 826.559 489.01 826.559 483.539C826.559 478.067 828.122 473.622 831.249 470.3C834.376 466.978 838.577 465.268 843.804 465.268ZM843.706 471.521C840.824 471.521 838.528 472.645 836.818 474.794C835.108 476.944 834.229 479.826 834.229 483.441C834.229 487.154 835.108 490.085 836.769 492.235C838.479 494.335 840.824 495.41 843.804 495.459C846.686 495.459 848.983 494.384 850.643 492.235C852.304 490.085 853.135 487.154 853.135 483.441C853.135 479.777 852.256 476.895 850.595 474.746C848.885 472.596 846.589 471.521 843.706 471.521ZM890.376 476.455L883.097 476.504C882.804 473.036 880.606 471.326 876.502 471.326C874.743 471.326 873.376 471.668 872.399 472.352C871.421 473.036 870.884 474.013 870.884 475.283C870.884 475.674 870.982 476.065 871.079 476.406C871.226 476.7 871.47 476.993 871.812 477.286C872.203 477.579 872.545 477.774 872.887 477.97C873.278 478.165 873.815 478.361 874.499 478.556C875.183 478.751 875.818 478.947 876.404 479.142C876.991 479.289 877.772 479.484 878.798 479.777C879.873 480.022 880.752 480.266 881.534 480.51C884.954 481.487 887.543 482.708 889.204 484.174C890.865 485.64 891.695 487.74 891.695 490.476C891.695 492.43 891.304 494.189 890.474 495.654C889.692 497.12 888.569 498.292 887.201 499.172C885.833 500.051 884.319 500.686 882.658 501.077C880.997 501.468 879.238 501.712 877.381 501.712C872.692 501.712 868.979 500.588 866.341 498.439C863.703 496.289 862.335 493.212 862.286 489.304H869.858C870.005 493.651 872.643 495.85 877.723 495.85C879.726 495.85 881.29 495.41 882.462 494.58C883.635 493.749 884.172 492.626 884.172 491.209C884.172 489.987 883.683 489.108 882.609 488.571C881.534 487.985 879.336 487.252 875.916 486.275C875.72 486.226 875.574 486.177 875.476 486.177C875.379 486.128 875.281 486.079 875.085 486.03C874.939 485.982 874.792 485.933 874.646 485.933C873.473 485.591 872.692 485.346 872.203 485.2C871.763 485.053 871.031 484.809 870.054 484.467C869.077 484.076 868.344 483.783 867.904 483.49C867.416 483.197 866.878 482.757 866.194 482.269C865.51 481.731 865.071 481.194 864.778 480.608C864.484 480.022 864.191 479.338 863.947 478.507C863.703 477.677 863.605 476.797 863.605 475.82C863.605 472.645 864.826 470.105 867.269 468.199C869.712 466.343 872.936 465.366 876.991 465.366C880.899 465.366 884.074 466.294 886.566 468.15C889.008 470.007 890.279 472.743 890.376 476.455ZM920.636 476.455L913.357 476.504C913.064 473.036 910.866 471.326 906.762 471.326C905.003 471.326 903.636 471.668 902.658 472.352C901.681 473.036 901.144 474.013 901.144 475.283C901.144 475.674 901.242 476.065 901.339 476.406C901.486 476.7 901.73 476.993 902.072 477.286C902.463 477.579 902.805 477.774 903.147 477.97C903.538 478.165 904.075 478.361 904.759 478.556C905.443 478.751 906.078 478.947 906.664 479.142C907.251 479.289 908.032 479.484 909.058 479.777C910.133 480.022 911.012 480.266 911.794 480.51C915.214 481.487 917.803 482.708 919.464 484.174C921.125 485.64 921.955 487.74 921.955 490.476C921.955 492.43 921.564 494.189 920.734 495.654C919.952 497.12 918.829 498.292 917.461 499.172C916.093 500.051 914.578 500.686 912.917 501.077C911.256 501.468 909.498 501.712 907.641 501.712C902.952 501.712 899.239 500.588 896.601 498.439C893.963 496.289 892.595 493.212 892.546 489.304H900.118C900.265 493.651 902.903 495.85 907.983 495.85C909.986 495.85 911.55 495.41 912.722 494.58C913.895 493.749 914.432 492.626 914.432 491.209C914.432 489.987 913.943 489.108 912.869 488.571C911.794 487.985 909.596 487.252 906.176 486.275C905.98 486.226 905.834 486.177 905.736 486.177C905.638 486.128 905.541 486.079 905.345 486.03C905.199 485.982 905.052 485.933 904.906 485.933C903.733 485.591 902.952 485.346 902.463 485.2C902.023 485.053 901.291 484.809 900.314 484.467C899.336 484.076 898.604 483.783 898.164 483.49C897.675 483.197 897.138 482.757 896.454 482.269C895.77 481.731 895.331 481.194 895.037 480.608C894.744 480.022 894.451 479.338 894.207 478.507C893.963 477.677 893.865 476.797 893.865 475.82C893.865 472.645 895.086 470.105 897.529 468.199C899.972 466.343 903.196 465.366 907.251 465.366C911.159 465.366 914.334 466.294 916.826 468.15C919.268 470.007 920.538 472.743 920.636 476.455ZM943.682 466.099V471.961H936.745V466.099H943.682ZM943.682 475.674V500.882H936.745V475.674H943.682ZM971.421 500.882H964.386V486.177C964.386 484.418 964.093 483.05 963.507 482.122C962.92 481.194 961.748 480.706 960.087 480.706C956.423 480.706 954.615 482.953 954.615 487.349V500.882H947.727V475.674H954.322V479.191C956.374 476.406 959.159 474.99 962.676 474.99C965.363 474.99 967.512 475.771 969.076 477.335C970.639 478.898 971.421 481.145 971.421 484.027V500.882ZM982.304 466.099V471.961H975.367V466.099H982.304ZM982.304 475.674V500.882H975.367V475.674H982.304ZM1000.17 475.674V480.412H995.045V492.284C995.045 493.016 995.045 493.554 995.094 493.896C995.094 494.238 995.24 494.58 995.436 494.97C995.631 495.312 995.924 495.557 996.315 495.654C996.706 495.752 997.292 495.801 998.074 495.801C998.904 495.801 999.588 495.801 1000.17 495.703V500.979C998.465 501.126 997.048 501.175 995.973 501.175C992.944 501.175 990.844 500.686 989.769 499.611C988.694 498.537 988.157 496.485 988.157 493.456V480.364H983.955V475.674H988.157V468.053H995.045V475.674H1000.17ZM1009.14 466.099V471.961H1002.2V466.099H1009.14ZM1009.14 475.674V500.882H1002.2V475.674H1009.14ZM1036.59 500.882H1029.5C1029.31 500.247 1029.11 499.416 1029.02 498.439C1026.92 500.588 1024.18 501.614 1020.86 501.614C1018.07 501.614 1015.87 500.979 1014.26 499.611C1012.7 498.244 1011.87 496.387 1011.87 493.993C1011.87 492.919 1012.02 491.99 1012.31 491.16C1012.6 490.378 1013.04 489.694 1013.68 489.108C1014.31 488.571 1014.9 488.131 1015.48 487.74C1016.07 487.398 1016.85 487.105 1017.83 486.861C1018.85 486.666 1019.69 486.47 1020.27 486.372C1020.91 486.275 1021.79 486.128 1022.91 485.982C1025.35 485.688 1026.96 485.346 1027.79 484.956C1028.63 484.614 1029.06 483.93 1029.06 482.953C1029.06 480.706 1027.55 479.582 1024.52 479.582C1022.91 479.582 1021.74 479.875 1021 480.461C1020.22 481.047 1019.73 482.025 1019.54 483.441H1013.04C1013.43 477.774 1017.29 474.941 1024.72 474.941C1032.04 474.941 1035.71 477.677 1035.71 483.148V494.042C1035.71 497.267 1036 499.514 1036.59 500.882ZM1028.97 488.62C1028.19 489.108 1026.52 489.597 1024.08 489.987C1022.03 490.281 1020.71 490.72 1020.08 491.209C1019.39 491.795 1019 492.674 1019 493.749C1019 494.775 1019.34 495.606 1020.03 496.192C1020.71 496.778 1021.64 497.071 1022.81 497.071C1024.67 497.071 1026.18 496.583 1027.31 495.606C1028.43 494.628 1028.97 493.212 1028.97 491.453V488.62ZM1053.6 475.674V480.412H1048.47V492.284C1048.47 493.016 1048.47 493.554 1048.52 493.896C1048.52 494.238 1048.67 494.58 1048.86 494.97C1049.06 495.312 1049.35 495.557 1049.74 495.654C1050.13 495.752 1050.72 495.801 1051.5 495.801C1052.33 495.801 1053.01 495.801 1053.6 495.703V500.979C1051.89 501.126 1050.47 501.175 1049.4 501.175C1046.37 501.175 1044.27 500.686 1043.19 499.611C1042.12 498.537 1041.58 496.485 1041.58 493.456V480.364H1037.38V475.674H1041.58V468.053H1048.47V475.674H1053.6ZM1062.57 466.099V471.961H1055.63V466.099H1062.57ZM1062.57 475.674V500.882H1055.63V475.674H1062.57ZM1082.25 475.674H1089.13L1080.58 500.882H1072.82L1064.17 475.674H1071.5L1076.87 492.87L1082.25 475.674ZM1114.17 493.065C1113.39 495.801 1111.92 497.902 1109.82 499.367C1107.72 500.882 1105.23 501.614 1102.3 501.614C1098.44 501.614 1095.31 500.442 1092.97 497.999C1090.62 495.606 1089.45 492.43 1089.45 488.424C1089.45 484.516 1090.62 481.292 1093.02 478.751C1095.36 476.211 1098.39 474.941 1102.11 474.941C1105.92 474.941 1108.94 476.26 1111.19 478.849C1113.44 481.438 1114.56 484.956 1114.56 489.352V490.036H1096.49C1096.49 492.235 1097.02 493.896 1098.05 495.019C1099.08 496.192 1100.54 496.729 1102.4 496.729C1104.84 496.729 1106.55 495.508 1107.53 493.065H1114.17ZM1107.48 485.64C1107.33 483.979 1106.8 482.66 1105.87 481.585C1104.99 480.51 1103.72 479.973 1102.06 479.973C1100.54 479.973 1099.27 480.51 1098.25 481.487C1097.27 482.513 1096.63 483.881 1096.44 485.64H1107.48Z" fill="white"/>
</svg>
