<svg width="1424" height="324" viewBox="0 0 1424 324" fill="none" xmlns="http://www.w3.org/2000/svg">
<path d="M697.24 182.09C696.83 183.88 696.4 185.3 696.19 186.75C693.49 205.05 690.82 223.35 688.13 241.65C685.1 262.26 682.12 282.88 679 303.48C677.48 313.53 673.93 316.5 663.6 316.53C644.03 316.59 624.46 316.55 604.9 316.54C603.41 316.54 601.91 316.52 600.45 316.32C593.06 315.34 588.31 309.49 589.19 302.01C590.16 293.78 591.49 285.59 592.7 277.38C595.03 261.61 597.39 245.84 599.72 230.07C602.94 208.2 606.12 186.32 609.35 164.44C613.38 137.1 617.45 109.77 621.5 82.43C624.52 62.03 627.57 41.64 630.5 21.22C631.7 12.83 633.44 7.64 646.69 7.42C656.68 7.26 666.68 7.39 676.68 7.38C684.97 7.38 693.27 7.33 701.56 7.41C703.88 7.43 706.2 7.78 708.52 8.06C713.44 8.65 716.58 11.58 718.57 15.92C719.37 17.66 720.07 19.44 720.79 21.21C736.49 59.58 752.18 97.95 767.89 136.32C768.52 137.86 769.27 139.35 770.15 141.28C771.72 139.68 771.73 137.98 771.95 136.46C774.6 118.59 777.21 100.7 779.84 82.83C782.87 62.22 785.91 41.61 788.97 21C789.22 19.32 789.5 17.61 790.08 16.03C791.55 12.03 794.09 9 798.53 8.19C800.82 7.78 803.15 7.43 805.47 7.42C824.4 7.36 843.33 7.36 862.26 7.42C864.58 7.43 866.94 7.7 869.2 8.21C876.14 9.78 879.93 15.31 878.92 22.38C877.33 33.53 875.64 44.67 873.99 55.82C870.32 80.64 866.66 105.45 862.99 130.27C858.92 157.82 854.83 185.37 850.77 212.92C847.17 237.32 843.6 261.72 840.01 286.12C839.14 292.01 838.29 297.9 837.39 303.78C837.16 305.25 836.88 306.73 836.43 308.14C835.11 312.3 832.36 315.09 828.02 315.98C825.96 316.4 823.8 316.53 821.69 316.53C802.97 316.57 784.26 316.51 765.54 316.58C757.81 316.61 752.82 315.64 748.61 305.26C732.73 266.05 716.58 226.95 700.5 187.81C699.69 185.92 699.23 183.78 697.24 182.09Z" fill="#00FFA8"/>
<path d="M1142.54 195.89C1142.99 174.75 1145.66 156.5 1149.81 138.41C1155.39 114.11 1164.88 91.52 1178.68 70.74C1195.03 46.12 1215.99 26.65 1242.88 14.04C1264.24 4.02 1286.83 -0.760005 1310.41 0.919995C1331.69 2.44 1351.75 8.20999 1369.65 20.49C1389.2 33.91 1403.26 51.66 1411.76 73.66C1420.76 96.98 1424.7 121.12 1422.46 146.21C1420.33 170.07 1415.8 193.36 1406.72 215.59C1396.37 240.93 1381.61 263.4 1361.42 281.98C1341.52 300.31 1318.52 313.1 1291.95 319.23C1276.27 322.85 1260.5 324.51 1244.48 322.62C1225.88 320.42 1208.36 315.12 1192.69 304.37C1175.34 292.46 1162.78 276.75 1154.7 257.47C1148.41 242.47 1144.81 226.74 1143.38 210.54C1142.87 204.81 1142.71 199.06 1142.54 195.89ZM1333.84 140.4C1334.02 131.42 1333.39 122.51 1331.34 113.78C1329.02 103.92 1325 94.86 1317.53 87.65C1313.74 84 1309.3 81.64 1304.13 80.76C1294.38 79.1 1285.07 80.25 1276.45 85.41C1269.99 89.27 1264.56 94.32 1259.72 100.03C1251.49 109.71 1245.84 120.83 1241.44 132.68C1232.36 157.16 1230 182.27 1234.37 207.97C1235.99 217.52 1239.51 226.38 1245.65 234.03C1250.39 239.94 1256.46 243.5 1264.1 244.22C1274.46 245.2 1283.94 242.87 1292.43 236.76C1299.57 231.61 1305.73 225.47 1310.52 218.08C1325.79 194.44 1333.63 168.55 1333.84 140.4Z" fill="#00FFA8"/>
<path d="M391.27 7.4C400.41 7.4 409.56 7.34 418.7 7.44C421.23 7.47 423.81 7.69 426.27 8.23C433.21 9.74 437.01 15.2 436.15 22.34C435.56 27.19 434.73 32.01 434.01 36.85C427.81 78.69 421.6 120.53 415.4 162.37C413.25 176.88 410.99 191.37 409.09 205.91C408.46 210.72 408.23 215.74 408.86 220.52C410.24 230.9 415.56 238.9 425.53 242.9C432.69 245.77 440.13 245.45 447.29 242.55C459.27 237.69 467.77 229.08 473.31 217.51C475.43 213.09 476.91 208.47 477.63 203.56C482.16 172.43 486.79 141.32 491.4 110.2C495.48 82.66 499.59 55.12 503.69 27.58C504.19 24.22 504.66 20.85 505.32 17.52C506.37 12.14 509.59 8.86 515.1 8.07C517.19 7.77 519.31 7.45 521.42 7.44C540.13 7.39 558.85 7.39 577.56 7.44C579.67 7.45 581.81 7.68 583.87 8.1C591.54 9.66 595.47 15.08 594.49 22.88C593.77 28.57 592.82 34.24 591.98 39.91C589.6 55.89 587.19 71.86 584.83 87.84C581.57 109.92 578.36 132.01 575.09 154.08C572.82 169.43 570.64 184.79 568.15 200.1C565.27 217.84 560.21 234.9 551.36 250.68C542.97 265.64 532.7 279.08 519.51 290.18C501.41 305.42 480.74 315.17 457.6 320.14C433.08 325.4 408.92 324.5 385.32 316.18C353.92 305.12 333.25 283.62 323.8 251.4C318.11 231.99 317.84 212.46 320.8 192.67C325.45 161.56 329.99 130.43 334.58 99.31C338.4 73.45 342.29 47.59 346 21.72C347.51 11.22 351.6 7.47 362.55 7.42C372.13 7.37 381.7 7.4 391.27 7.4Z" fill="#00FFA8"/>
<path d="M1022.49 87.72C1021.28 87.38 1020.51 87.01 1019.72 86.97C1017.81 86.86 1015.89 86.89 1013.98 86.89C984.2 86.89 954.43 86.9 924.65 86.87C922.11 86.87 919.52 86.86 917.02 86.46C909.49 85.25 905.47 80.12 906.07 72.57C906.31 69.61 906.88 66.68 907.32 63.73C909.4 49.64 911.47 35.55 913.58 21.46C913.86 19.57 914.19 17.67 914.75 15.85C915.98 11.91 918.57 9.23999 922.69 8.37999C924.97 7.90999 927.3 7.66 929.61 7.43C930.87 7.3 932.16 7.4 933.44 7.4C1005.54 7.4 1077.64 7.39 1149.74 7.44C1153.12 7.44 1156.57 7.60999 1159.85 8.30999C1166.37 9.71999 1170.06 15.7 1168.93 22.27C1168.37 25.53 1166.73 28.2 1164.75 30.75C1157.06 40.66 1149.37 50.57 1141.72 60.51C1108.14 104.15 1074.58 147.8 1041 191.45C1030.5 205.1 1019.99 218.74 1009.5 232.4C1008.65 233.51 1007.98 234.75 1007.04 236.22C1009.27 237.35 1011.18 237.02 1013 237.02C1035.33 237.04 1057.66 237.04 1079.99 237.04C1087.43 237.04 1094.88 237 1102.32 237.07C1104.43 237.09 1106.53 237.41 1108.63 237.66C1116.53 238.6 1120.33 246.68 1119.32 252.54C1118.31 258.4 1117.55 264.31 1116.67 270.2C1115.07 280.92 1113.48 291.65 1111.85 302.37C1111.6 304.05 1111.26 305.72 1110.87 307.37C1109.67 312.51 1106.33 315.43 1101.21 316.2C1098.91 316.55 1096.55 316.55 1094.22 316.55C1064.87 316.57 1035.52 316.56 1006.17 316.56C963.85 316.56 921.52 316.56 879.2 316.55C876.86 316.55 874.52 316.54 872.19 316.36C861.21 315.48 858.72 303.6 862.63 297.32C863.42 296.06 864.26 294.83 865.17 293.65C902.94 244.39 940.73 195.13 978.5 145.87C992.34 127.82 1006.14 109.74 1019.94 91.66C1020.83 90.53 1021.51 89.26 1022.49 87.72Z" fill="#00FFA8"/>
<path d="M1.73979 307.12C12.7698 290.86 84.6098 191.44 98.4398 172.37C100.41 169.65 104.9 167.27 108.99 170.87C109.19 171.05 112.81 174.37 113 174.54C131.45 190.9 144.8 202.01 163.23 218.39C164.09 219.15 164.96 219.89 165.85 220.63C167.73 222.19 170.55 221.82 171.92 219.81C172.42 219.08 172.86 218.34 173.36 217.65C188.46 196.83 203.51 175.97 218.57 155.12C237.37 129.1 256.16 103.08 274.98 77.08L275.01 77.04C276.86 74.49 280.73 74.89 282.08 77.73C282.14 77.85 282.19 77.97 282.25 78.09C287.74 88.99 291.06 100.63 293.66 112.49C297.92 131.91 296.94 151.3 293.38 170.74C287.6 202.27 273.71 229.82 253.12 254.15C232.94 278.01 208.24 295.63 178.98 306.56C161.96 312.92 144.3 316.53 126 316.52C89.0098 316.5 52.0198 316.55 15.0298 316.54C13.1198 316.54 11.1998 316.45 9.31979 316.15C6.02979 315.64 3.39979 314.25 1.71979 311.73C0.779792 310.34 0.789789 308.51 1.73979 307.12Z" fill="#00FFA8"/>
<path d="M161.45 160.24C161.06 160.94 159.45 163.41 156.21 161.02C154.47 159.73 155.08 160.29 153.68 159.1C135.11 143.2 119.23 129.52 100.68 113.58C95.44 108.85 90.32 111.02 87.77 116.78C75.72 141.64 65.5 162.39 53.47 187.26C37.09 221.12 20.7 254.98 4.29001 288.83C2.79001 292.25 0.720012 291.39 0.940012 289.83C3.33001 273.43 5.74001 257.03 8.16001 240.64C11.79 216.04 15.42 191.45 19.05 166.85C22.68 142.25 26.29 117.66 29.91 93.06C33.19 70.78 36.46 48.49 39.76 26.21C40.16 23.48 40.53 20.73 41.19 18.05C42.47 12.88 45.46 9.31 51.02 8.51C53.11 8.21 55.23 7.94 57.34 7.94C93.91 7.91 130.47 7.73 167.04 7.99C188.37 8.14 208.77 12.77 227.82 22.66C227.95 22.73 228.08 22.8 228.21 22.87C227.02 25.49 184.18 113.33 161.45 160.24Z" fill="#00FFA8"/>
</svg>
