<svg width="256" height="224" viewBox="0 0 256 224" fill="none" xmlns="http://www.w3.org/2000/svg">
<path d="M240 0C248.5 0 256 7.5 256 16V192C256 210 241.5 224 224 224H32C14 224 0 210 0 192V48C0 39.5 7 32 16 32H32V184C32 188.5 35.5 192 40 192C44 192 48 188.5 48 184V16C48 7.5 55 0 64 0H240ZM136 192C140 192 144 188.5 144 184C144 180 140 176 136 176H88C83.5 176 80 180 80 184C80 188.5 83.5 192 88 192H136ZM136 144C140 144 144 140.5 144 136C144 132 140 128 136 128H88C83.5 128 80 132 80 136C80 140.5 83.5 144 88 144H136ZM216 192C220 192 224 188.5 224 184C224 180 220 176 216 176H168C163.5 176 160 180 160 184C160 188.5 163.5 192 168 192H216ZM216 144C220 144 224 140.5 224 136C224 132 220 128 216 128H168C163.5 128 160 132 160 136C160 140.5 163.5 144 168 144H216ZM224 88V40C224 36 220 32 216 32H88C83.5 32 80 36 80 40V88C80 92.5 83.5 96 88 96H216C220 96 224 92.5 224 88Z" fill="white"/>
</svg>
