<svg width="721" height="305" viewBox="0 0 721 305" fill="none" xmlns="http://www.w3.org/2000/svg">
<path d="M76.4504 207.612C84.0304 214.619 95.6743 214.619 103.254 207.612C118.083 193.905 127.369 174.287 127.369 152.5C127.369 130.714 118.084 111.096 103.254 97.3884C95.6743 90.3818 84.0304 90.3818 76.4504 97.3884C61.6212 111.096 52.3358 130.714 52.3358 152.5C52.3358 174.287 61.6212 193.905 76.4504 207.612Z" fill="#D6DCF5"/>
<path d="M101.154 273.662C95.2605 278.587 86.7385 278.587 80.8452 273.662C46.1762 244.687 24.1699 201.154 24.1699 152.5C24.1699 103.847 46.1762 60.3132 80.8452 31.339C86.7385 26.4139 95.2605 26.4139 101.154 31.339C128.461 54.1604 147.912 86.0142 154.942 122.288H179.503C171.598 74.9731 145.438 33.8394 108.51 6.37279C98.1 -1.37035 83.899 -1.37036 73.4886 6.37279C28.8913 39.5438 0 92.6481 0 152.5C0 212.353 28.8913 265.457 73.4886 298.628C83.899 306.371 98.1 306.371 108.51 298.628C145.438 271.161 171.598 230.028 179.503 182.713H154.942C147.912 218.986 128.461 250.84 101.154 273.662Z" fill="#D6DCF5"/>
<path d="M317.277 124.538C312.453 124.124 308.324 123.036 304.891 121.275C301.457 119.514 298.636 117.338 296.429 114.749C294.221 112.055 292.586 109.051 291.524 105.736C290.542 102.421 290.052 98.9512 290.052 95.3255C290.052 92.1142 289.888 89.4209 289.561 87.2455C289.234 85.0701 288.662 83.3608 287.844 82.1177C287.109 80.7711 286.087 79.8388 284.779 79.3208C283.471 78.6993 281.795 78.3885 279.751 78.3885C277.461 78.3885 275.622 78.8547 274.232 79.787C272.842 80.6157 271.779 81.807 271.044 83.3608C270.39 84.9147 269.94 86.7275 269.695 88.7993C269.531 90.8711 269.449 93.0983 269.449 95.4809C269.449 99.1066 268.795 102.577 267.487 105.892C266.261 109.207 264.421 112.211 261.969 114.904C259.516 117.494 256.45 119.669 252.771 121.43C249.174 123.088 244.963 124.124 240.14 124.538C244.963 124.952 249.174 125.988 252.771 127.646C256.45 129.2 259.516 131.22 261.969 133.706C264.421 136.088 266.261 138.833 267.487 141.941C268.795 144.945 269.449 148.157 269.449 151.575C269.449 153.854 269.531 155.978 269.695 157.946C269.94 159.81 270.39 161.468 271.044 162.918C271.779 164.368 272.842 165.508 274.232 166.337C275.622 167.165 277.461 167.58 279.751 167.58C281.795 167.58 283.471 167.321 284.779 166.803C286.087 166.285 287.109 165.404 287.844 164.161C288.662 162.918 289.234 161.313 289.561 159.344C289.888 157.273 290.052 154.735 290.052 151.73C290.052 148.416 290.542 145.204 291.524 142.097C292.586 138.989 294.221 136.192 296.429 133.706C298.636 131.22 301.457 129.2 304.891 127.646C308.324 125.988 312.453 124.952 317.277 124.538ZM230.574 122.984C230.574 114.075 231.187 106.461 232.414 100.142C233.64 93.8235 235.316 88.4886 237.442 84.1378C239.649 79.787 242.265 76.3167 245.29 73.7269C248.397 71.1372 251.749 69.169 255.346 67.8223C259.025 66.372 262.909 65.4397 266.997 65.0253C271.166 64.611 275.418 64.4038 279.751 64.4038C284.084 64.4038 288.335 64.611 292.505 65.0253C296.756 65.4397 300.721 66.372 304.4 67.8223C308.161 69.169 311.595 71.1372 314.701 73.7269C317.89 76.3167 320.629 79.787 322.918 84.1378C325.207 88.4886 326.965 93.8235 328.191 100.142C329.499 106.461 330.153 114.075 330.153 122.984C330.153 131.893 329.499 139.507 328.191 145.826C326.965 152.145 325.207 157.48 322.918 161.83C320.629 166.181 317.89 169.652 314.701 172.241C311.595 174.831 308.161 176.851 304.4 178.301C300.721 179.648 296.756 180.529 292.505 180.943C288.335 181.357 284.084 181.564 279.751 181.564C275.418 181.564 271.166 181.357 266.997 180.943C262.909 180.529 259.025 179.648 255.346 178.301C251.749 176.851 248.397 174.831 245.29 172.241C242.265 169.652 239.649 166.181 237.442 161.83C235.316 157.48 233.64 152.145 232.414 145.826C231.187 139.507 230.574 131.893 230.574 122.984Z" fill="#D6DCF5"/>
<path d="M332.105 179.855C332.514 179.544 333.086 178.146 333.822 175.66C334.639 173.174 335.416 169.703 336.152 165.249C336.969 160.691 337.664 155.253 338.237 148.933C338.809 142.614 339.136 135.467 339.218 127.49C339.218 125.418 339.218 122.673 339.218 119.255C339.218 115.733 339.136 111.952 338.972 107.912C338.809 103.768 338.564 99.5209 338.237 95.1701C337.91 90.8193 337.46 86.7275 336.888 82.8947C336.397 79.0618 335.743 75.6434 334.926 72.6392C334.108 69.6351 333.127 67.4079 331.982 65.9577C335.661 66.4756 339.34 66.7346 343.019 66.7346C346.698 66.7346 350.337 66.5792 353.934 66.2684C357.613 65.9577 361.292 65.6469 364.971 65.3361C368.65 64.9218 372.329 64.6628 376.008 64.5592C379.442 64.4556 383.039 64.5592 386.8 64.87C390.561 65.0771 394.24 65.5951 397.837 66.4238C401.516 67.1489 404.991 68.2366 408.261 69.6869C411.613 71.1372 414.515 73.0536 416.968 75.4362C419.502 77.7152 421.505 80.5121 422.977 83.827C424.53 87.0383 425.307 90.8711 425.307 95.3255C425.307 101.645 424.367 107.446 422.486 112.729C420.688 117.908 418.153 122.363 414.883 126.092C411.695 129.821 407.893 132.722 403.478 134.793C399.063 136.762 394.281 137.746 389.13 137.746H344.491V129.976H368.65C374.455 129.976 378.91 127.646 382.017 122.984C385.206 118.219 386.963 111.278 387.29 102.162C387.454 97.1901 387.127 93.0465 386.309 89.7316C385.574 86.4167 384.511 83.7752 383.121 81.807C381.731 79.7352 380.096 78.2331 378.215 77.3008C376.335 76.2649 374.332 75.6434 372.206 75.4362C373.269 77.8188 374.128 80.7193 374.782 84.1378C375.436 87.4526 375.845 91.4927 376.008 96.2578C376.172 100.505 375.518 104.7 374.046 108.844C372.656 112.884 370.612 116.562 367.914 119.876C365.298 123.088 362.15 125.729 358.471 127.801C354.792 129.769 350.868 130.753 346.698 130.753C351.522 131.168 355.732 132.152 359.33 133.706C363.009 135.26 366.075 137.176 368.527 139.455C370.98 141.63 372.82 144.168 374.046 147.069C375.354 149.866 376.008 152.818 376.008 155.926C376.008 163.384 375.395 168.978 374.169 172.707C373.024 176.437 371.43 178.975 369.386 180.321C367.342 181.668 364.93 182.134 362.15 181.72C359.371 181.409 356.346 180.891 353.075 180.166C349.805 179.441 346.371 178.923 342.774 178.612C339.259 178.198 335.702 178.612 332.105 179.855Z" fill="#D6DCF5"/>
<path d="M475.618 181.564C471.694 181.564 467.769 181.409 463.845 181.098C460.002 180.891 456.323 180.218 452.808 179.078C449.374 177.939 446.186 176.23 443.242 173.951C440.381 171.672 437.969 168.564 436.007 164.627C434.045 160.587 432.614 155.563 431.715 149.555C430.897 143.443 430.775 136.088 431.347 127.49C431.51 125.418 431.674 122.673 431.837 119.255C432.083 115.733 432.246 111.952 432.328 107.912C432.491 103.768 432.532 99.5209 432.451 95.1701C432.451 90.8193 432.287 86.7275 431.96 82.8947C431.715 79.0618 431.224 75.6434 430.488 72.6392C429.834 69.6351 428.935 67.4079 427.79 65.9577C431.878 65.9577 435.639 65.8541 439.073 65.6469C442.588 65.3361 445.777 65.2843 448.638 65.4915C451.5 65.5951 454.034 66.0612 456.242 66.89C458.531 67.6151 460.493 69.0654 462.128 71.2408C463.763 73.3126 465.03 76.1613 465.93 79.787C466.911 83.4126 467.524 88.126 467.769 93.927C467.933 97.6563 467.279 101.386 465.807 105.115C464.417 108.74 462.373 112.004 459.675 114.904C457.059 117.701 453.912 120.032 450.232 121.896C446.553 123.657 442.629 124.538 438.46 124.538C443.283 124.952 447.494 125.988 451.091 127.646C454.77 129.2 457.836 131.22 460.289 133.706C462.741 136.088 464.581 138.833 465.807 141.941C467.115 144.945 467.769 148.157 467.769 151.575C467.769 153.854 467.851 155.978 468.014 157.946C468.178 159.81 468.505 161.468 468.996 162.918C469.568 164.368 470.345 165.508 471.326 166.337C472.388 167.165 473.819 167.58 475.618 167.58C478.725 167.58 480.809 166.44 481.872 164.161C482.935 161.882 483.466 157.739 483.466 151.73C483.466 144.997 485.592 139.455 489.843 135.104C494.095 130.65 501.044 128.008 510.691 127.18C508.239 127.18 505.418 126.299 502.229 124.538C499.041 122.673 496.016 120.239 493.155 117.235C490.293 114.231 487.881 110.709 485.919 106.669C484.039 102.629 483.221 98.3814 483.466 93.927C483.712 88.126 484.325 83.4126 485.306 79.787C486.369 76.1613 487.718 73.3126 489.353 71.2408C491.07 69.0654 493.114 67.6151 495.485 66.89C497.856 66.0612 500.513 65.5951 503.456 65.4915C506.481 65.2843 509.751 65.3361 513.267 65.6469C516.782 65.8541 520.584 65.9577 524.672 65.9577C523.527 67.4079 522.587 69.6351 521.851 72.6392C521.197 75.6434 520.706 79.0618 520.379 82.8947C520.134 86.7275 519.971 90.8193 519.889 95.1701C519.889 99.5209 519.93 103.768 520.011 107.912C520.175 111.952 520.338 115.733 520.502 119.255C520.747 122.673 520.952 125.418 521.115 127.49C521.687 136.088 521.524 143.443 520.625 149.555C519.725 155.563 518.213 160.587 516.087 164.627C514.043 168.564 511.509 171.672 508.484 173.951C505.541 176.23 502.27 177.939 498.673 179.078C495.158 180.218 491.397 180.891 487.391 181.098C483.466 181.409 479.542 181.564 475.618 181.564Z" fill="#D6DCF5"/>
<path d="M571.819 151.886C571.655 155.719 572.309 159.085 573.781 161.986C575.334 164.886 577.746 166.44 581.016 166.647C584.041 166.855 586.33 166.181 587.884 164.627C589.519 163.074 590.582 161.105 591.072 158.723C591.563 156.237 591.604 153.543 591.195 150.643C590.786 147.742 590.091 145.101 589.11 142.718C596.059 142.718 601.537 142.977 605.543 143.495C609.549 144.013 612.533 145.101 614.495 146.758C616.539 148.312 617.807 150.643 618.297 153.75C618.788 156.858 619.033 161.054 619.033 166.337C619.033 168.201 619.033 170.273 619.033 172.552C619.115 174.831 619.687 176.54 620.75 177.68C613.065 179.13 606.279 180.011 600.393 180.321C594.588 180.736 589.233 180.788 584.327 180.477C579.504 180.27 574.966 179.907 570.715 179.389C566.545 178.871 562.294 178.457 557.961 178.146C553.71 177.732 549.131 177.628 544.226 177.835C539.402 177.939 533.925 178.612 527.793 179.855C528.202 179.544 528.774 178.146 529.51 175.66C530.327 173.174 531.104 169.703 531.84 165.249C532.657 160.691 533.352 155.253 533.925 148.933C534.497 142.614 534.824 135.467 534.906 127.49C534.906 125.418 534.906 122.673 534.906 119.255C534.906 115.733 534.824 111.952 534.661 107.912C534.497 103.768 534.252 99.5209 533.925 95.1701C533.598 90.8193 533.148 86.7275 532.576 82.8947C532.085 79.0618 531.431 75.6434 530.614 72.6392C529.796 69.6351 528.815 67.4079 527.67 65.9577C531.758 65.9577 535.642 65.8541 539.321 65.6469C543 65.3361 546.393 65.2843 549.499 65.4915C552.688 65.5951 555.59 66.0612 558.206 66.89C560.823 67.6151 563.071 69.0654 564.951 71.2408C566.913 73.3126 568.467 76.1613 569.611 79.787C570.756 83.4126 571.451 88.126 571.696 93.927C571.86 97.6563 571.206 101.386 569.734 105.115C568.344 108.74 566.3 112.004 563.602 114.904C560.986 117.701 557.838 120.032 554.159 121.896C550.48 123.657 546.556 124.538 542.386 124.538C552.034 125.47 559.433 128.319 564.583 133.084C569.734 137.746 572.146 144.013 571.819 151.886Z" fill="#D6DCF5"/>
<path d="M632.194 121.43H712.152V132.307H632.194V121.43ZM670.947 64.4038C674.871 64.4038 678.795 64.5592 682.719 64.87C686.726 65.0771 690.486 65.7505 694.002 66.89C697.599 68.0295 700.869 69.7387 703.813 72.0177C706.838 74.2967 709.372 77.4562 711.416 81.4962C713.542 85.4326 715.054 90.4568 715.953 96.5686C716.853 102.577 717.016 109.88 716.444 118.478C716.28 120.55 716.076 123.347 715.831 126.869C715.667 130.287 715.504 134.068 715.34 138.212C715.258 142.252 715.218 146.447 715.218 150.798C715.299 155.149 715.463 159.241 715.708 163.074C716.035 166.906 716.526 170.325 717.18 173.329C717.916 176.333 718.856 178.56 720 180.011C715.913 180.011 712.111 180.114 708.595 180.321C705.08 180.632 701.85 180.684 698.907 180.477C695.964 180.373 693.307 179.959 690.936 179.234C688.565 178.405 686.521 176.955 684.804 174.883C683.169 172.707 681.82 169.807 680.757 166.181C679.776 162.556 679.122 157.842 678.795 152.041C678.55 147.898 679.367 144.013 681.248 140.387C683.21 136.658 685.622 133.395 688.483 130.598C691.345 127.801 694.37 125.574 697.558 123.916C700.747 122.259 703.567 121.43 706.02 121.43C696.373 120.602 689.424 117.856 685.172 113.195C680.921 108.43 678.795 102.473 678.795 95.3255C678.795 88.9029 678.264 84.5003 677.201 82.1177C676.138 79.6316 674.053 78.3885 670.947 78.3885C669.148 78.3885 667.717 78.8029 666.654 79.6316C665.673 80.4603 664.897 81.5998 664.324 83.0501C663.834 84.5003 663.507 86.2096 663.343 88.1778C663.18 90.0424 663.098 92.1142 663.098 94.3932C663.098 97.8117 662.444 101.075 661.136 104.182C659.91 107.187 658.07 109.932 655.617 112.418C653.165 114.8 650.099 116.821 646.42 118.478C642.822 120.032 638.612 121.016 633.788 121.43C637.958 121.43 641.882 122.363 645.561 124.227C649.24 125.988 652.388 128.319 655.004 131.22C657.702 134.016 659.746 137.28 661.136 141.009C662.607 144.634 663.261 148.312 663.098 152.041C662.853 157.842 662.24 162.556 661.258 166.181C660.359 169.807 659.092 172.707 657.457 174.883C655.822 176.955 653.86 178.405 651.57 179.234C649.363 179.959 646.829 180.373 643.967 180.477C641.106 180.684 637.917 180.632 634.402 180.321C630.968 180.114 627.207 180.011 623.119 180.011C624.264 178.56 625.163 176.333 625.817 173.329C626.553 170.325 627.043 166.906 627.289 163.074C627.616 159.241 627.779 155.149 627.779 150.798C627.861 146.447 627.82 142.252 627.657 138.212C627.575 134.068 627.411 130.287 627.166 126.869C627.003 123.347 626.839 120.55 626.676 118.478C626.103 109.88 626.226 102.577 627.043 96.5686C627.943 90.4568 629.374 85.4326 631.336 81.4962C633.298 77.4562 635.71 74.2967 638.571 72.0177C641.514 69.7387 644.703 68.0295 648.137 66.89C651.652 65.7505 655.331 65.0771 659.174 64.87C663.098 64.5592 667.022 64.4038 670.947 64.4038Z" fill="#D6DCF5"/>
<path d="M561.594 230.816H570.855C568.676 235.719 564.754 240.948 556.419 240.948C547.158 240.948 543.454 232.287 544.707 226.24C546.014 219.812 550.808 213.057 560.123 213.057C568.077 213.057 572.271 218.341 572.38 223.244H563.283C563.011 222.481 562.139 220.956 559.633 220.956C555.929 220.956 553.804 224.224 553.205 227.002C552.606 229.781 553.314 233.049 557.018 233.049C559.524 233.049 560.995 231.578 561.594 230.816ZM604.016 226.403L601.074 240.294H592.467L595.409 225.967C595.899 223.462 595.3 220.411 591.323 219.757C587.401 219.104 585.494 221.718 584.95 224.224C584.677 225.695 583.697 229.999 583.261 232.178L581.572 240.294H572.911L581.027 202.162H589.635L587.347 213.057C586.856 215.29 584.296 219.267 584.296 219.267H585.385C588.436 213.002 594.101 212.621 597.207 213.384C604.724 215.29 604.833 222.481 604.016 226.403ZM621.586 217.469L616.738 240.294H608.077L611.726 223.462C611.999 222.318 611.291 221.609 610.364 221.609H608.077L609.765 213.711H618.427C620.824 213.711 622.022 215.29 621.586 217.469ZM619.68 208.209C621.423 208.209 623.384 206.683 623.765 204.777C624.31 202.162 622.458 200.037 619.952 200.037C618.045 200.037 616.139 201.508 615.703 203.469C615.158 206.029 617.01 208.209 619.68 208.209ZM639.883 220.956C636.724 220.956 633.128 222.971 632.257 227.002C631.44 231.034 634.163 233.049 637.323 233.049C640.482 233.049 644.078 231.034 644.895 227.002C645.767 222.971 643.043 220.956 639.883 220.956ZM634.163 240.948C626.428 240.948 622.342 233.049 623.922 225.695C625.284 219.321 630.35 213.057 638.794 213.057C644.514 213.057 646.093 215.944 646.911 217.633H648C648 217.633 647.728 215.617 647.728 213.819V213.711H656.444L647.564 255.439H638.848L641.518 242.909C642.335 239.205 644.023 236.372 644.023 236.372H642.934C641.409 238.061 639.284 240.948 634.163 240.948ZM658.405 227.602L661.347 213.711H669.954L667.012 228.038C666.522 230.543 667.121 233.594 671.098 234.248C675.02 234.901 676.981 232.287 677.471 229.781C677.798 228.31 678.724 224.006 679.16 221.827L680.849 213.711H689.51L683.845 240.294H675.183L675.238 240.131C675.946 237.952 678.125 234.738 678.125 234.738H677.035C673.985 241.003 668.319 241.384 665.214 240.621C657.697 238.715 657.588 231.524 658.405 227.602ZM706.087 220.139C702.71 220.139 700.64 222.481 699.768 224.061L710.609 224.115C710.391 222.536 709.465 220.139 706.087 220.139ZM698.461 229.018C698.461 230.325 698.951 233.866 703.146 233.866C705.978 233.866 707.504 232.232 708.212 231.36H716.873C715.784 233.648 712.352 240.948 702.328 240.948C693.068 240.948 689.854 232.287 691.161 226.294C692.577 219.812 697.644 213.057 706.687 213.057C716.002 213.057 720.033 220.629 717.854 229.018H698.461Z" fill="#D6DCF5"/>
</svg>
