<svg width="840" height="343" viewBox="0 0 840 343" fill="none" xmlns="http://www.w3.org/2000/svg">
<path d="M426.496 124.377V136.131C433.548 126.728 443.343 121.83 456.077 121.83C469.398 121.83 479.976 126.728 488.204 136.522C496.236 146.317 500.349 159.443 500.349 175.506C500.349 191.57 496.432 204.303 488.596 213.706C480.76 223.305 470.181 228.007 457.252 228.007C445.106 228.007 435.311 223.305 427.867 213.902V259.742H394.76V124.377H426.496ZM446.478 148.276C440.209 148.276 435.311 150.823 431.785 155.525C428.259 160.422 426.496 167.083 426.496 175.31C426.496 183.93 428.259 190.59 431.785 195.292C435.311 199.993 440.405 202.344 446.869 202.344C453.334 202.344 458.231 200.189 461.758 195.488C465.284 190.982 467.047 184.518 467.047 175.898C467.047 166.887 465.284 160.03 461.758 155.329C458.231 150.627 453.138 148.276 446.478 148.276ZM580.841 123.006V152.782C575.551 151.607 571.242 150.823 567.715 150.823C550.868 150.823 542.64 160.422 542.64 179.424V225.46H509.534V124.377H541.269L541.073 141.616C544.599 134.955 548.713 130.058 553.611 126.923C558.508 123.789 564.777 122.026 572.221 122.026C574.964 122.026 577.706 122.418 580.841 123.006ZM611.75 155.133H580.406C580.994 142.791 586.283 133.78 596.274 127.903C604.501 123.201 615.276 120.851 628.597 120.851C633.886 120.851 638.588 121.242 642.897 121.634C647.207 122.222 651.517 123.201 655.827 124.573C660.136 126.14 663.663 128.099 666.601 130.45C669.344 132.996 671.694 136.327 673.458 140.44C675.221 144.554 676.2 149.452 676.2 154.937V199.406C676.2 211.551 677.375 220.171 680.118 225.46H646.619C646.228 224.873 645.64 221.738 644.661 215.861C636.825 224.285 625.658 228.399 611.162 228.399C600.779 228.399 592.356 225.852 586.087 220.563C579.622 215.469 576.488 207.829 576.488 197.643C576.488 192.549 577.467 187.848 579.426 183.93C581.385 180.012 583.736 177.073 586.479 174.919C589.221 172.96 592.748 171.001 597.449 169.433C602.151 167.866 606.264 166.887 609.791 166.299C613.317 165.907 617.822 165.124 623.308 164.34C628.793 163.556 632.907 162.969 635.649 162.381C638.784 161.597 640.938 160.618 642.31 159.443C643.681 158.267 644.465 156.112 644.465 152.978C644.465 149.452 642.702 146.905 639.371 145.142C636.041 143.379 632.319 142.399 628.401 142.399C618.802 142.399 613.317 146.709 611.75 155.133ZM609.595 196.271C609.595 204.107 614.296 207.829 623.504 207.829C631.339 207.829 636.825 205.675 639.959 200.973C643.093 196.271 644.269 188.631 643.877 177.857C642.114 179.032 638.588 180.208 633.298 181.187C628.009 182.363 624.679 182.95 623.308 183.342C614.296 185.497 609.595 189.807 609.595 196.271ZM661.704 106.55H598.037V89.7029H661.704V106.55ZM749.422 124.377H783.312L749.226 225.46H710.83L676.743 124.377H711.613L730.419 190.003L749.422 124.377ZM806.798 190.199V225.46H771.341V190.199H806.798Z" fill="white"/>
<g filter="url(#filter0_i_119_2)">
<g clip-path="url(#clip0_119_2)">
<rect width="342.494" height="342.494" rx="171.247" fill="url(#paint0_linear_119_2)"/>
<rect width="342.494" height="342.494" rx="171.247" fill="url(#paint1_linear_119_2)"/>
<rect width="342.494" height="342.494" rx="171.247" fill="url(#paint2_radial_119_2)" fill-opacity="0.33"/>
<mask id="mask0_119_2" style="mask-type:luminance" maskUnits="userSpaceOnUse" x="7" y="0" width="330" height="329">
<path d="M279.062 328.937H64.1463C32.6603 328.937 7.13574 303.412 7.13574 271.926V57.0105C7.13574 25.5244 32.6603 -9.15527e-05 64.1463 -9.15527e-05H279.062C310.548 -9.15527e-05 336.072 25.5244 336.072 57.0105V271.926C336.072 303.412 310.548 328.937 279.062 328.937Z" fill="white"/>
</mask>
<g mask="url(#mask0_119_2)">
<path d="M216.62 -5.23237C216.831 -3.46224 216.81 -1.81521 216.863 9.49965e-05V20.5585C216.863 31.9126 226.068 41.1171 237.422 41.1171H243.588C249.283 41.1171 253.867 45.7015 253.867 51.3963C253.867 57.0911 249.283 61.6757 243.588 61.6757H155.186C121.124 61.6757 93.5108 34.0625 93.5108 9.49965e-05C93.5108 -34.0623 121.124 -61.6755 154.169 -61.6702C187.214 -61.6643 213.903 -37.1432 216.62 -5.23237Z" fill="#CCF5FF"/>
<g filter="url(#filter1_d_119_2)">
<path d="M274.422 195.306C274.422 257.754 223.798 308.378 161.351 308.378H-3.12177C-8.81632 308.378 -13.401 303.794 -13.401 298.099C-13.401 292.404 -8.81656 287.819 -3.12177 287.819H17.4368C34.4681 287.819 48.2746 274.013 48.2746 256.982L48.2819 195.306C48.2819 132.858 98.9062 82.2341 161.353 82.2341C223.799 82.2341 274.422 132.858 274.422 195.306Z" fill="#CCF5FF"/>
<path d="M274.422 195.306C274.422 257.754 223.798 308.378 161.351 308.378H-3.12177C-8.81632 308.378 -13.401 303.794 -13.401 298.099C-13.401 292.404 -8.81656 287.819 -3.12177 287.819H17.4368C34.4681 287.819 48.2746 274.013 48.2746 256.982L48.2819 195.306C48.2819 132.858 98.9062 82.2341 161.353 82.2341C223.799 82.2341 274.422 132.858 274.422 195.306Z" fill="url(#paint3_radial_119_2)"/>
</g>
<mask id="mask1_119_2" style="mask-type:luminance" maskUnits="userSpaceOnUse" x="-14" y="82" width="289" height="227">
<path d="M274.423 195.306C274.423 257.754 223.799 308.378 161.351 308.378H-3.12147C-8.81602 308.378 -13.4007 303.794 -13.4007 298.099C-13.4007 292.404 -8.81627 287.819 -3.12147 287.819H17.4371C34.4683 287.819 48.2749 274.013 48.2749 256.982L48.2822 195.306C48.2822 132.858 98.9062 82.2341 161.353 82.2341C223.8 82.2341 274.423 132.858 274.423 195.306Z" fill="white"/>
</mask>
<g mask="url(#mask1_119_2)">
<path d="M161.666 226.144C167.182 226.144 171.624 230.585 171.624 236.102V236.744C171.624 242.261 167.182 246.702 161.666 246.702H140.465C134.948 246.702 130.507 242.261 130.507 236.744V236.102C130.507 230.585 134.948 226.144 140.465 226.144L161.666 226.144ZM115.409 226.144C115.581 226.144 115.753 226.149 115.923 226.156C121.199 226.422 125.367 230.757 125.367 236.102V236.744C125.367 242.261 120.926 246.702 115.409 246.702H94.208C88.6912 246.702 84.2501 242.261 84.2501 236.744V236.102C84.2501 230.585 88.6912 226.144 94.208 226.144L115.409 226.144ZM69.1534 226.144C74.6702 226.144 79.1113 230.585 79.1113 236.102V236.744C79.1113 242.261 74.6702 246.702 69.1534 246.702H47.9525C42.4357 246.702 37.9946 242.261 37.9946 236.744V236.102C37.9946 230.585 42.4357 226.144 47.9525 226.144L69.1534 226.144ZM22.8967 226.144C28.4135 226.144 32.8546 230.585 32.8546 236.102V236.744C32.8546 242.261 28.4135 246.702 22.8967 246.702H1.69584C-3.82096 246.702 -8.26209 242.261 -8.26209 236.744V236.102C-8.26209 230.585 -3.82096 226.144 1.69584 226.144L22.8967 226.144ZM109.326 267.261C115.366 267.261 120.229 271.845 120.229 277.54C120.229 283.235 115.366 287.819 109.326 287.819H69.456C63.4156 287.819 58.553 283.235 58.553 277.54C58.553 271.845 63.4156 267.261 69.456 267.261L109.326 267.261ZM42.5105 267.261C48.5506 267.261 53.4133 271.845 53.4133 277.54C53.4133 283.235 48.5506 287.819 42.5105 287.819H2.64064C-3.39944 287.819 -8.26233 283.235 -8.26233 277.54C-8.26233 271.845 -3.39944 267.261 2.64064 267.261L42.5105 267.261Z" fill="#3E3752"/>
</g>
</g>
</g>
</g>
<defs>
<filter id="filter0_i_119_2" x="0" y="0" width="342.494" height="342.494" filterUnits="userSpaceOnUse" color-interpolation-filters="sRGB">
<feFlood flood-opacity="0" result="BackgroundImageFix"/>
<feBlend mode="normal" in="SourceGraphic" in2="BackgroundImageFix" result="shape"/>
<feColorMatrix in="SourceAlpha" type="matrix" values="0 0 0 0 0 0 0 0 0 0 0 0 0 0 0 0 0 0 127 0" result="hardAlpha"/>
<feOffset/>
<feGaussianBlur stdDeviation="23.9755"/>
<feComposite in2="hardAlpha" operator="arithmetic" k2="-1" k3="1"/>
<feColorMatrix type="matrix" values="0 0 0 0 1 0 0 0 0 1 0 0 0 0 1 0 0 0 0.33 0"/>
<feBlend mode="normal" in2="shape" result="effect1_innerShadow_119_2"/>
</filter>
<filter id="filter1_d_119_2" x="-37.3764" y="58.2586" width="345.364" height="283.685" filterUnits="userSpaceOnUse" color-interpolation-filters="sRGB">
<feFlood flood-opacity="0" result="BackgroundImageFix"/>
<feColorMatrix in="SourceAlpha" type="matrix" values="0 0 0 0 0 0 0 0 0 0 0 0 0 0 0 0 0 0 127 0" result="hardAlpha"/>
<feOffset dx="4.7951" dy="4.7951"/>
<feGaussianBlur stdDeviation="14.3853"/>
<feComposite in2="hardAlpha" operator="out"/>
<feColorMatrix type="matrix" values="0 0 0 0 0 0 0 0 0 0 0 0 0 0 0 0 0 0 0.2 0"/>
<feBlend mode="normal" in2="BackgroundImageFix" result="effect1_dropShadow_119_2"/>
<feBlend mode="normal" in="SourceGraphic" in2="effect1_dropShadow_119_2" result="shape"/>
</filter>
<linearGradient id="paint0_linear_119_2" x1="294.656" y1="289.914" x2="49.6327" y2="34.4843" gradientUnits="userSpaceOnUse">
<stop stop-color="#0A49F4"/>
<stop offset="1" stop-color="#C60BF5"/>
</linearGradient>
<linearGradient id="paint1_linear_119_2" x1="27.8741" y1="292.752" x2="309.792" y2="54.3509" gradientUnits="userSpaceOnUse">
<stop stop-color="#D90893"/>
<stop offset="1" stop-color="#908930" stop-opacity="0"/>
</linearGradient>
<radialGradient id="paint2_radial_119_2" cx="0" cy="0" r="1" gradientUnits="userSpaceOnUse" gradientTransform="translate(179.809 -5.82868e-06) rotate(137.243) scale(244.89)">
<stop stop-color="white"/>
<stop offset="1" stop-color="white" stop-opacity="0"/>
</radialGradient>
<radialGradient id="paint3_radial_119_2" cx="0" cy="0" r="1" gradientUnits="userSpaceOnUse" gradientTransform="translate(202.167 168.868) rotate(-180) scale(147.463 147.463)">
<stop stop-color="white" stop-opacity="0.67"/>
<stop offset="1" stop-color="white" stop-opacity="0"/>
</radialGradient>
<clipPath id="clip0_119_2">
<rect width="342.494" height="342.494" rx="171.247" fill="white"/>
</clipPath>
</defs>
</svg>
