<svg width="108" height="100" viewBox="0 0 108 100" fill="none" xmlns="http://www.w3.org/2000/svg">
<path d="M45.4691 0.191986V22.208C38.3011 23.744 33.4371 26.56 30.3651 30.4C27.2931 34.496 25.7571 39.872 25.5011 47.04H45.4691V99.52H0.413086V56.512C0.413086 39.872 3.74109 27.072 10.6531 17.856C17.3091 8.896 29.0851 3.008 45.4691 0.191986ZM107.421 0.191986V22.208C100.253 23.744 95.3891 26.56 92.3171 30.4C89.2451 34.496 87.7091 39.872 87.4531 47.04H107.421V99.52H62.3651V56.512C62.3651 39.872 65.6931 27.072 72.6051 17.856C79.2611 8.896 91.0371 3.008 107.421 0.191986Z" fill="white"/>
</svg>
