<svg width="546" height="623" viewBox="0 0 546 623" fill="none" xmlns="http://www.w3.org/2000/svg">
<path d="M265.101 309.653L184.844 315.973H163.674L233.504 370.004L240.771 363.053L257.834 373.796L272.368 370.004L291.643 396.862L262.257 400.969L244.879 394.018H221.181L198.115 380.115L163.674 351.678L122.597 330.823L111.854 304.914L119.122 280.9L176.313 265.101L233.504 252.778L240.771 237.927L244.879 212.018L233.504 177.577L213.914 152.299L184.212 126.073V95.4238L176.313 126.073L163.674 141.556L139.66 158.934L100.479 163.042L61.6147 177.577L33.8091 197.483L3.79167 184.528L0 163.042L7.58334 149.139L44.5521 108.379L65.4063 71.4098L96.6876 48.6598L100.479 36.6528L94.4758 19.5903L117.858 33.4931L125.125 29.7014L115.33 0L133.656 9.79515L148.191 24.9618L209.174 19.5903L285.639 35.073L250.566 43.6042L318.5 46.448L343.146 58.139L344.094 71.4098L326.716 60.9827L304.282 71.4098L344.094 87.5244L389.594 114.066L344.094 108.379L449.629 167.15L467.008 198.747L434.778 177.577L395.914 173.469L460.056 229.08L416.768 216.441L492.917 288.167L455.317 284.059L543.473 379.167L326.716 340.619L265.101 309.653Z" fill="#F5F2FF"/>
<path d="M237.611 237.927L231.608 251.198L176.313 260.993L126.389 276.16L129.865 257.518L137.448 248.671L184.844 233.82L239.823 221.181L237.611 237.927Z" fill="#F5F2FF"/>
<path d="M184.844 319.132L224.341 317.237L239.191 327.98L250.566 333.035L260.046 327.98L275.212 337.775L287.535 333.035L311.233 358.945L292.275 363.685L274.264 363.053L257.834 358.945L250.566 360.525H240.771L229.712 354.205L211.386 337.143L184.844 319.132Z" fill="#F5F2FF"/>
<path d="M41.8346 542.44H77.2531C79.783 542.44 81.0479 543.038 81.0479 544.232C81.0479 545.286 80.1343 546.13 78.3072 546.762C76.9017 547.254 75.5665 547.5 74.3015 547.5H3.46452C1.5671 547.5 0.618395 546.657 0.618395 544.97C0.618395 544.197 0.864357 543.354 1.35628 542.44L13.057 522.201C13.8301 520.796 14.9896 519.601 16.5356 518.617C18.152 517.633 19.6629 517.141 21.0684 517.141H56.4869C57.8221 517.141 59.2627 516.649 60.8088 515.666C62.4251 514.682 63.6198 513.487 64.3928 512.081L70.2959 501.962C70.7878 501.048 71.0338 500.205 71.0338 499.432C71.0338 497.745 70.085 496.902 68.1876 496.902H32.7691C30.169 496.902 28.8689 496.305 28.8689 495.11C28.8689 494.056 29.8176 493.213 31.715 492.58C33.1205 492.088 34.4206 491.842 35.6153 491.842H106.452C108.42 491.842 109.404 492.686 109.404 494.372C109.404 495.145 109.158 495.989 108.666 496.902L96.9652 517.141C96.1219 518.547 94.9272 519.741 93.3811 520.725C91.8351 521.709 90.3593 522.201 88.9538 522.201H53.5353C52.1298 522.201 50.6541 522.693 49.108 523.677C47.562 524.661 46.3673 525.855 45.524 527.261L39.7263 537.38C39.1641 538.294 38.883 539.137 38.883 539.91C38.883 541.597 39.8669 542.44 41.8346 542.44ZM140.521 522.201C139.115 522.201 137.64 522.693 136.094 523.677C134.548 524.661 133.353 525.855 132.51 527.261L126.712 537.38C126.15 538.294 125.869 539.137 125.869 539.91C125.869 541.597 126.853 542.44 128.82 542.44C130.226 542.44 131.701 541.948 133.248 540.964C134.794 539.981 135.988 538.786 136.832 537.38L139.783 532.321C140.556 530.915 141.716 529.72 143.262 528.737C144.808 527.753 146.284 527.261 147.689 527.261H172.988C174.956 527.261 175.939 528.104 175.939 529.791C175.939 530.564 175.694 531.407 175.202 532.321L169.299 542.44C168.525 543.846 167.331 545.04 165.715 546.024C164.168 547.008 162.693 547.5 161.287 547.5H90.4502C88.5528 547.5 87.6041 546.657 87.6041 544.97C87.6041 544.197 87.85 543.354 88.3419 542.44L114.695 496.902C115.468 495.497 116.628 494.302 118.174 493.318C119.72 492.334 121.195 491.842 122.601 491.842H193.438C195.406 491.842 196.389 492.686 196.389 494.372C196.389 495.145 196.143 495.989 195.652 496.902L183.951 517.141C183.108 518.547 181.913 519.741 180.367 520.725C178.821 521.709 177.345 522.201 175.939 522.201H140.521ZM147.162 501.962L141.259 512.081C140.767 512.995 140.521 513.838 140.521 514.611C140.521 516.298 141.505 517.141 143.473 517.141C144.808 517.141 146.248 516.649 147.794 515.666C149.411 514.682 150.605 513.487 151.378 512.081L157.282 501.962C157.773 501.048 158.019 500.205 158.019 499.432C158.019 497.745 157.071 496.902 155.173 496.902C153.768 496.902 152.257 497.394 150.641 498.378C149.095 499.362 147.935 500.556 147.162 501.962ZM213.012 491.842H283.849C285.816 491.842 286.8 492.686 286.8 494.372C286.8 495.145 286.554 495.989 286.062 496.902L259.709 542.44C258.936 543.846 257.742 545.04 256.125 546.024C254.579 547.008 253.103 547.5 251.698 547.5H216.279C214.944 547.5 213.468 547.992 211.852 548.976C210.306 549.96 209.147 551.154 208.374 552.56L191.613 581.654C190.559 583.481 189.434 584.394 188.24 584.394C187.607 584.394 187.08 584.043 186.659 583.34L172.744 559.622C172.252 558.849 172.006 557.866 172.006 556.671C172.006 554.914 172.428 553.333 173.271 551.927L205.106 496.902C205.879 495.497 207.038 494.302 208.584 493.318C210.13 492.334 211.606 491.842 213.012 491.842ZM227.242 537.38L247.692 501.962C248.184 501.048 248.43 500.205 248.43 499.432C248.43 497.745 247.481 496.902 245.584 496.902C244.179 496.902 242.668 497.394 241.051 498.378C239.505 499.362 238.346 500.556 237.573 501.962L217.123 537.38C216.561 538.294 216.279 539.137 216.279 539.91C216.279 541.597 217.263 542.44 219.231 542.44C220.636 542.44 222.112 541.948 223.658 540.964C225.204 539.981 226.399 538.786 227.242 537.38ZM332.704 491.842H368.122C370.09 491.842 371.074 492.686 371.074 494.372C371.074 495.145 370.793 495.989 370.231 496.902L343.983 542.44C343.14 543.846 341.945 545.04 340.399 546.024C338.853 547.008 337.377 547.5 335.972 547.5H310.673C308.705 547.5 307.721 546.657 307.721 544.97C307.721 544.197 308.002 543.354 308.565 542.44L331.861 501.962C332.423 501.048 332.704 500.205 332.704 499.432C332.704 497.745 331.72 496.902 329.752 496.902C328.347 496.902 326.871 497.394 325.325 498.378C323.779 499.362 322.584 500.556 321.741 501.962L298.445 542.44C297.602 543.846 296.407 545.04 294.861 546.024C293.315 547.008 291.839 547.5 290.434 547.5H265.135C263.167 547.5 262.183 546.657 262.183 544.97C262.183 544.197 262.464 543.354 263.026 542.44L311.938 457.689C312.992 455.862 314.116 454.948 315.311 454.948C315.943 454.948 316.435 455.264 316.787 455.897L330.806 479.72C331.228 480.423 331.439 481.371 331.439 482.566C331.439 484.323 331.017 485.939 330.174 487.415C329.752 488.118 329.542 488.785 329.542 489.418C329.542 491.034 330.596 491.842 332.704 491.842ZM404.51 583.446L390.49 559.622C390.069 558.92 389.858 557.971 389.858 556.776C389.858 555.019 390.28 553.403 391.123 551.927C391.474 551.225 391.65 550.557 391.65 549.924C391.65 548.308 390.631 547.5 388.593 547.5H353.174C351.207 547.5 350.223 546.657 350.223 544.97C350.223 544.197 350.504 543.354 351.066 542.44L377.314 496.902C378.157 495.497 379.352 494.302 380.898 493.318C382.444 492.334 383.92 491.842 385.325 491.842H410.624C412.522 491.842 413.47 492.686 413.47 494.372C413.47 495.145 413.224 495.989 412.732 496.902L389.331 537.38C388.839 538.294 388.593 539.137 388.593 539.91C388.593 541.597 389.577 542.44 391.545 542.44C392.88 542.44 394.32 541.948 395.866 540.964C397.483 539.981 398.677 538.786 399.45 537.38L422.852 496.902C423.695 495.497 424.89 494.302 426.436 493.318C427.982 492.334 429.458 491.842 430.863 491.842H456.162C458.06 491.842 459.008 492.686 459.008 494.372C459.008 495.145 458.762 495.989 458.27 496.902L409.359 581.654C408.305 583.481 407.181 584.394 405.986 584.394C405.353 584.394 404.862 584.078 404.51 583.446ZM471.872 491.842H542.709C544.677 491.842 545.66 492.686 545.66 494.372C545.66 495.145 545.379 495.989 544.817 496.902L539.019 507.022C538.246 508.427 537.052 509.622 535.435 510.606C533.889 511.59 532.414 512.081 531.008 512.081H505.709C503.812 512.081 502.863 511.238 502.863 509.552C502.863 508.779 503.109 507.935 503.601 507.022L506.553 501.962C507.044 501.048 507.29 500.205 507.29 499.432C507.29 497.745 506.307 496.902 504.339 496.902C503.004 496.902 501.528 497.394 499.912 498.378C498.365 499.362 497.206 500.556 496.433 501.962L473.031 542.44C472.258 543.846 471.064 545.04 469.447 546.024C467.901 547.008 466.426 547.5 465.02 547.5H439.721C437.824 547.5 436.875 546.657 436.875 544.97C436.875 544.197 437.121 543.354 437.613 542.44L463.861 496.902C464.704 495.497 465.899 494.302 467.445 493.318C468.991 492.334 470.466 491.842 471.872 491.842Z" fill="#F5F2FF"/>
<path fill-rule="evenodd" clip-rule="evenodd" d="M18.8824 559.911C8.87623 559.911 0.764648 568.023 0.764648 578.029V604.382C0.764648 614.388 8.87622 622.5 18.8824 622.5H165.059C175.066 622.5 183.177 614.388 183.177 604.382V591.944C183.177 589.033 182.406 586.174 180.941 583.658L171.168 566.868C168.661 562.561 164.052 559.911 159.068 559.911H18.8824ZM21.8433 608.191C22.9928 608.775 24.3397 609.066 25.8838 609.066C28.0284 609.066 29.8728 608.414 31.4169 607.11C32.961 605.807 34.1963 603.894 35.1228 601.371L38.2882 592.647C38.8887 591.017 39.189 589.473 39.189 588.015C39.189 586.574 38.8887 585.321 38.2882 584.257C37.6877 583.194 36.8213 582.37 35.689 581.787C34.5566 581.204 33.2184 580.912 31.6742 580.912C29.5296 580.912 27.6767 581.564 26.1154 582.868C24.5713 584.155 23.3446 586.068 22.4352 588.607L19.244 597.331C18.6436 598.961 18.3433 600.496 18.3433 601.938C18.3433 603.379 18.6436 604.64 19.244 605.721C19.8445 606.785 20.711 607.608 21.8433 608.191ZM27.7367 603.894C27.2392 604.46 26.6387 604.743 25.9352 604.743C25.249 604.743 24.7171 604.554 24.3397 604.177C23.9794 603.782 23.7992 603.224 23.7992 602.504C23.7992 601.852 23.9536 601.088 24.2624 600.213L28.3801 588.916C28.8605 587.594 29.3495 586.651 29.847 586.085C30.3446 585.518 30.9537 585.235 31.6742 585.235C32.3434 585.235 32.8581 585.433 33.2184 585.827C33.5958 586.205 33.7845 586.745 33.7845 587.449C33.7845 588.049 33.6387 588.77 33.347 589.61L29.1779 601.088C28.7147 602.392 28.2343 603.327 27.7367 603.894ZM45.1853 581.478L35.3544 608.5H41.325L46.1118 595.298C46.9353 593.033 47.716 591.343 48.4537 590.228C49.2086 589.096 50.1179 588.281 51.1817 587.783C52.2626 587.268 53.7895 586.908 55.7626 586.702L57.2038 580.835C56.1057 580.886 55.1364 581.092 54.2957 581.452C53.455 581.813 52.5885 582.396 51.6964 583.202C50.8214 584.009 49.792 585.158 48.6081 586.651L48.1964 586.368C49.1228 585.098 49.7662 584.137 50.1265 583.485C50.504 582.816 50.7528 582.147 50.8729 581.478H45.1853ZM49.8692 608.5H55.8398L65.6707 581.478H59.7001L49.8692 608.5ZM60.5494 578.647H66.8545L68.759 573.397H62.4538L60.5494 578.647ZM82.0899 585.802C82.0899 584.309 81.6524 583.177 80.7774 582.405C80.7602 581.632 80.8803 581.049 81.1377 580.654C81.4122 580.26 81.8669 579.968 82.5017 579.779C83.1536 579.574 84.1573 579.385 85.5127 579.213L85.1781 573.938C83.2737 574.023 81.7811 574.641 80.7002 575.791C79.6365 576.923 79.1046 578.587 79.1046 580.783L79.1303 581.478C78.2553 581.186 77.2173 581.041 76.0163 581.041C71.0923 581.041 67.6352 583.794 65.645 589.302C65.0102 591 64.6928 592.476 64.6928 593.728C64.6928 595.118 65.0874 596.224 65.8766 597.048L65.7222 597.588C63.406 598.017 61.9477 599.09 61.3472 600.805C61.1927 601.286 61.1155 601.732 61.1155 602.144C61.1155 603.293 61.6817 604.237 62.8141 604.974L62.6082 605.669C61.0812 606.064 59.8631 606.664 58.9538 607.471C58.0444 608.26 57.3324 609.349 56.8177 610.739C56.4917 611.614 56.3288 612.446 56.3288 613.236C56.3288 614.745 56.955 615.921 58.2074 616.761C59.4599 617.619 61.27 618.048 63.6376 618.048C66.5371 618.048 68.8533 617.516 70.5862 616.452C72.3362 615.389 73.6401 613.69 74.4979 611.357C74.9612 610.122 75.1928 608.989 75.1928 607.96C75.1928 605.489 73.8717 603.731 71.2296 602.684L68.6817 601.68C67.6866 601.286 66.9918 600.943 66.5972 600.651C66.2197 600.342 66.031 600.033 66.031 599.724C66.031 599.639 66.0653 599.493 66.1339 599.287C66.2369 599.012 66.4256 598.789 66.7001 598.618C66.9746 598.446 67.3692 598.309 67.8839 598.206C68.7075 598.463 69.6854 598.592 70.8178 598.592C73.2541 598.592 75.3215 597.914 77.02 596.559C78.7357 595.186 80.1083 593.102 81.1377 590.305C81.7725 588.555 82.0899 587.054 82.0899 585.802ZM76.3509 586.316C76.3509 587.174 76.0507 588.418 75.4502 590.048C74.8154 591.815 74.2234 593.059 73.6744 593.78C73.1254 594.5 72.5077 594.86 71.8215 594.86C71.3411 594.86 70.9808 594.74 70.7406 594.5C70.5175 594.26 70.406 593.874 70.406 593.342C70.406 592.536 70.7148 591.275 71.3325 589.559C71.9673 587.792 72.5592 586.548 73.1082 585.827C73.6573 585.107 74.2749 584.746 74.9612 584.746C75.8877 584.746 76.3509 585.27 76.3509 586.316ZM69.7884 609.452C69.7884 609.881 69.6854 610.379 69.4795 610.945C69.1021 611.94 68.5531 612.669 67.8325 613.133C67.1119 613.613 66.1082 613.853 64.8214 613.853C62.4538 613.853 61.27 613.107 61.27 611.614C61.27 611.151 61.3729 610.636 61.5788 610.07C61.9734 608.989 62.4538 608.148 63.02 607.548C63.5861 606.948 64.3839 606.459 65.4134 606.081L67.0604 606.647C67.9697 606.956 68.6474 607.342 69.0935 607.805C69.5568 608.251 69.7884 608.8 69.7884 609.452ZM77.3546 608.5H83.3252L93.1561 581.478H87.1855L77.3546 608.5ZM88.0348 578.647H94.34L96.2444 573.397H89.9392L88.0348 578.647ZM96.3988 581.478L86.5679 608.5H92.5385L98.1745 593.007C99.0495 590.623 99.976 588.77 100.954 587.449C101.949 586.128 102.901 585.467 103.811 585.467C104.651 585.467 105.072 585.844 105.072 586.599C105.072 586.908 104.994 587.294 104.84 587.757L97.2995 608.5H103.27L110.888 587.552C111.282 586.454 111.48 585.493 111.48 584.669C111.48 583.537 111.137 582.67 110.45 582.07C109.781 581.452 108.812 581.143 107.542 581.143C106.564 581.143 105.672 581.332 104.866 581.71C104.059 582.087 103.253 582.653 102.447 583.408C101.657 584.163 100.739 585.201 99.6929 586.522L99.3069 586.239C100.165 585.038 100.791 584.069 101.186 583.331C101.597 582.576 101.838 581.958 101.906 581.478H96.3988ZM108.752 607.934C109.541 608.672 110.656 609.041 112.097 609.041C113.693 609.041 115.066 608.595 116.215 607.702C117.382 606.81 118.403 605.463 119.278 603.662L119.715 603.791C119.2 605.026 118.943 606.038 118.943 606.827C118.943 607.582 119.2 608.14 119.715 608.5C120.23 608.861 121.036 609.041 122.134 609.041C122.752 609.041 123.267 608.989 123.678 608.886L125.531 604.588C124.965 604.571 124.57 604.52 124.347 604.434C124.124 604.348 124.013 604.177 124.013 603.919C124.013 603.731 124.099 603.396 124.27 602.916L129.006 589.945C129.452 588.71 129.675 587.612 129.675 586.651C129.675 584.849 129.023 583.451 127.719 582.456C126.432 581.444 124.673 580.938 122.443 580.938C120.865 580.938 119.518 581.229 118.403 581.813C117.305 582.396 116.361 583.271 115.572 584.438C114.782 585.604 114.053 587.114 113.384 588.967L112.972 590.074L118.274 591.772L118.814 590.28C119.278 588.958 119.689 587.938 120.05 587.217C120.41 586.496 120.77 585.99 121.131 585.699C121.491 585.39 121.894 585.235 122.34 585.235C122.855 585.235 123.249 585.381 123.524 585.673C123.816 585.965 123.961 586.359 123.961 586.857C123.961 587.251 123.876 587.672 123.704 588.118L122.366 591.772L118.197 593.11C115.829 593.848 113.796 594.852 112.097 596.121C110.399 597.391 109.172 599.055 108.417 601.114L108.083 602.092C107.722 603.087 107.542 604.014 107.542 604.872C107.542 606.158 107.945 607.179 108.752 607.934ZM117.45 603.302C116.695 604.108 115.932 604.511 115.16 604.511C114.765 604.511 114.465 604.4 114.259 604.177C114.053 603.954 113.95 603.636 113.95 603.224C113.95 602.847 114.045 602.401 114.233 601.886L114.671 600.754C115.014 599.827 115.554 599.038 116.292 598.386C117.047 597.734 117.931 597.22 118.943 596.842L120.847 596.147L119.406 599.93C118.874 601.354 118.222 602.478 117.45 603.302ZM126.097 608.5H132.068L145.167 572.471H139.197L126.097 608.5ZM138.991 607.548C140.278 608.56 142.062 609.066 144.344 609.066C146.763 609.066 148.676 608.483 150.083 607.316C151.507 606.15 152.442 604.477 152.888 602.298C153.025 601.663 153.094 600.994 153.094 600.291C153.094 599.193 152.914 598.163 152.553 597.202C152.21 596.242 151.721 595.255 151.087 594.243L149.671 592.004C149.174 591.232 148.822 590.563 148.616 589.996C148.41 589.43 148.307 588.881 148.307 588.349C148.307 587.989 148.367 587.543 148.487 587.011C148.796 585.604 149.551 584.901 150.752 584.901C151.335 584.901 151.781 585.064 152.09 585.39C152.399 585.699 152.553 586.179 152.553 586.831C152.553 587.569 152.339 588.521 151.91 589.688L151.55 590.691L157.031 590.382L157.314 589.662C157.726 588.444 157.932 587.363 157.932 586.419C157.932 584.669 157.306 583.322 156.053 582.379C154.818 581.435 153.102 580.963 150.906 580.963C148.539 580.963 146.686 581.53 145.348 582.662C144.009 583.794 143.143 585.416 142.748 587.526C142.645 588.092 142.594 588.632 142.594 589.147C142.594 590.108 142.748 591.034 143.057 591.927C143.383 592.802 143.863 593.771 144.498 594.835L145.862 597.151C146.772 598.661 147.226 600.05 147.226 601.32C147.226 601.749 147.175 602.186 147.072 602.633C146.935 603.405 146.643 604.005 146.197 604.434C145.768 604.863 145.227 605.077 144.575 605.077C143.254 605.077 142.594 604.262 142.594 602.633C142.594 601.74 142.791 600.668 143.186 599.416L143.623 598.232L138.167 598.566L137.807 599.57C137.327 600.908 137.086 602.135 137.086 603.25C137.086 605.103 137.721 606.536 138.991 607.548ZM152.914 608.5H159.888L162.153 602.247H155.204L152.914 608.5Z" fill="#F5F2FF"/>
</svg>
